<?xml version="1.0" encoding="UTF-8" standalone="no"?>
<!-- Created with Inkscape (http://www.inkscape.org/) -->

<svg
   xmlns:dc="http://purl.org/dc/elements/1.1/"
   xmlns:cc="http://creativecommons.org/ns#"
   xmlns:rdf="http://www.w3.org/1999/02/22-rdf-syntax-ns#"
   xmlns:svg="http://www.w3.org/2000/svg"
   xmlns="http://www.w3.org/2000/svg"
   xmlns:sodipodi="http://sodipodi.sourceforge.net/DTD/sodipodi-0.dtd"
   xmlns:inkscape="http://www.inkscape.org/namespaces/inkscape"
   width="1052"
   height="527"
   id="svg8841"
   version="1.1"
   inkscape:version="0.48.3.1 r9886"
   sodipodi:docname="OPCODE.svg">
  <defs
     id="defs8843" />
  <sodipodi:namedview
     id="base"
     pagecolor="#ffffff"
     bordercolor="#666666"
     borderopacity="1.0"
     inkscape:pageopacity="0.0"
     inkscape:pageshadow="2"
     inkscape:zoom="0.49497475"
     inkscape:cx="359.89336"
     inkscape:cy="522.5281"
     inkscape:document-units="px"
     inkscape:current-layer="layer1"
     showgrid="false"
     inkscape:window-width="1231"
     inkscape:window-height="776"
     inkscape:window-x="49"
     inkscape:window-y="24"
     inkscape:window-maximized="1" />
  <metadata
     id="metadata8846">
    <rdf:RDF>
      <cc:Work
         rdf:about="">
        <dc:format>image/svg+xml</dc:format>
        <dc:type
           rdf:resource="http://purl.org/dc/dcmitype/StillImage" />
        <dc:title></dc:title>
      </cc:Work>
    </rdf:RDF>
  </metadata>
  <g
     inkscape:label="Capa 1"
     inkscape:groupmode="layer"
     id="layer1"
     transform="translate(0,-525.36218)">
    <g
       id="g9130">
      <g
         transform="matrix(3.549285,0,0,3.549285,1503.0678,-2265.2504)"
         id="g8902">
        <g
           transform="matrix(1.25,0,0,-1.25,-638.1827,933.8251)"
           id="g8797">
          <path
             d="m 190.62585,59.537777 c -1.056,0 -1.92,-0.800001 -1.92,-1.984 0,-0.959999 0.864,-1.952 1.92,-1.952 1.184,0 2.016,0.992001 2.016,1.952 0,1.183999 -0.832,1.984 -2.016,1.984"
             style="font-size:32px;font-style:normal;font-weight:normal;line-height:125%;letter-spacing:0px;word-spacing:0px;fill:#000000;fill-opacity:1;stroke:none;font-family:Code Bold;-inkscape-font-specification:Code Bold"
             id="path3900"
             inkscape:connector-curvature="0" />
          <path
             d="m 201.92685,79.025902 2.65625,0 -8.125,-26.296875 -2.65625,0 8.125,26.296875"
             style="font-size:32px;font-style:normal;font-weight:normal;line-height:125%;letter-spacing:0px;word-spacing:0px;fill:#000000;fill-opacity:1;stroke:none;font-family:Code Bold;-inkscape-font-specification:Code Bold"
             id="path3902"
             inkscape:connector-curvature="0" />
          <path
             d="m 224.10235,66.897777 c 0,-2.303998 -0.928,-4.320002 -2.368,-5.792 -1.504,-1.503999 -3.584,-2.432 -5.792,-2.432 -2.208,0 -4.256,0.928001 -5.728,2.432 -1.472,1.471998 -2.4,3.520002 -2.4,5.792 0,2.271998 0.928,4.320001 2.4,5.792 1.472,1.503998 3.52,2.432 5.728,2.432 2.208,0 4.288,-0.928002 5.792,-2.432 1.44,-1.471999 2.368,-3.488003 2.368,-5.792 m -19.552,0 c 0,-3.167997 1.312,-6.016002 3.328,-8.096 2.048,-2.111998 4.928,-3.392 8.064,-3.392 3.168,0 6.016,1.280002 8.096,3.392 2.016,2.079998 3.328,4.928003 3.328,8.096 0,3.167997 -1.312,6.016002 -3.328,8.096 -2.08,2.079998 -4.928,3.392 -8.096,3.392 -3.136,0 -6.016,-1.312002 -8.064,-3.392 -2.016,-2.079998 -3.328,-4.928003 -3.328,-8.096"
             style="font-size:32px;font-style:normal;font-weight:normal;line-height:125%;letter-spacing:0px;word-spacing:0px;fill:#1caa24;fill-opacity:1;stroke:none;font-family:Code Bold;-inkscape-font-specification:Code Bold"
             id="path3904"
             inkscape:connector-curvature="0" />
          <path
             d="m 229.99985,78.097777 0,-22.4 3.264,0 0,7.456 4.928,0 c 4.83199,0 7.264,3.712004 7.264,7.456 0,3.743996 -2.43201,7.488 -7.264,7.488 l -8.192,0 m 3.264,-11.744 0,8.48 4.928,0 c 2.72,0 4.064,-2.112002 4.064,-4.256 0,-2.111998 -1.344,-4.224 -4.064,-4.224 l -4.928,0"
             style="font-size:32px;font-style:normal;font-weight:normal;line-height:125%;letter-spacing:0px;word-spacing:0px;fill:#148e8a;fill-opacity:0.99215686;stroke:none;font-family:Code Bold;-inkscape-font-specification:Code Bold"
             id="path3906"
             inkscape:connector-curvature="0" />
          <path
             d="m 245.71035,66.833777 c 0,-3.103997 1.28,-5.920002 3.2,-7.968 1.952,-2.047998 4.704,-3.328 7.744,-3.328 5.21599,0 9.312,3.456005 10.592,8.544 l -3.168,0 c -1.152,-3.391997 -4.032,-5.344 -7.424,-5.344 -2.144,0 -4.096,0.928001 -5.504,2.4 -1.408,1.471998 -2.304,3.456002 -2.304,5.696 0,2.303997 0.896,4.288001 2.304,5.76 1.408,1.471998 3.36,2.4 5.504,2.4 3.296,0 6.048,-1.696004 7.232,-5.056 l 3.2,0 c -1.28,5.055995 -5.31201,8.256 -10.432,8.256 -3.04,0 -5.792,-1.312002 -7.744,-3.328 -1.92,-2.047998 -3.2,-4.864003 -3.2,-8.032"
             style="font-size:32px;font-style:normal;font-weight:normal;line-height:125%;letter-spacing:0px;word-spacing:0px;fill:#783f67;fill-opacity:1;stroke:none;font-family:Code Bold;-inkscape-font-specification:Code Bold"
             id="path3908"
             inkscape:connector-curvature="0" />
          <path
             d="m 287.85235,66.897777 c 0,-2.303998 -0.928,-4.320002 -2.368,-5.792 -1.504,-1.503999 -3.584,-2.432 -5.792,-2.432 -2.208,0 -4.256,0.928001 -5.728,2.432 -1.472,1.471998 -2.4,3.520002 -2.4,5.792 0,2.271998 0.928,4.320001 2.4,5.792 1.472,1.503998 3.52,2.432 5.728,2.432 2.208,0 4.288,-0.928002 5.792,-2.432 1.44,-1.471999 2.368,-3.488003 2.368,-5.792 m -19.552,0 c 0,-3.167997 1.312,-6.016002 3.328,-8.096 2.048,-2.111998 4.928,-3.392 8.064,-3.392 3.168,0 6.016,1.280002 8.096,3.392 2.016,2.079998 3.328,4.928003 3.328,8.096 0,3.167997 -1.312,6.016002 -3.328,8.096 -2.08,2.079998 -4.928,3.392 -8.096,3.392 -3.136,0 -6.016,-1.312002 -8.064,-3.392 -2.016,-2.079998 -3.328,-4.928003 -3.328,-8.096"
             style="font-size:32px;font-style:normal;font-weight:normal;line-height:125%;letter-spacing:0px;word-spacing:0px;fill:#d3000c;fill-opacity:0.98039216;stroke:none;font-family:Code Bold;-inkscape-font-specification:Code Bold"
             id="path3910"
             inkscape:connector-curvature="0" />
          <path
             d="m 296.39035,58.929777 0,15.904 4.8,0 c 5.18399,0 7.808,-4.000004 7.808,-7.968 0,-3.967996 -2.62401,-7.936 -7.808,-7.936 l -4.8,0 m -3.232,19.136 0,-22.368 8.032,0 c 7.32799,0 11.008,5.568005 11.008,11.168 0,5.599994 -3.68001,11.2 -11.008,11.2 l -8.032,0"
             style="font-size:32px;font-style:normal;font-weight:normal;line-height:125%;letter-spacing:0px;word-spacing:0px;fill:#ff6600;fill-opacity:1;stroke:none;font-family:Code Bold;-inkscape-font-specification:Code Bold"
             id="path3912"
             inkscape:connector-curvature="0" />
          <path
             d="m 317.07485,65.265777 10.144,0 0,3.264 -10.144,0 0,6.304 10.368,0 0,3.232 -13.632,0 0,-22.368 13.664,0 0,3.232 -10.4,0 0,6.336"
             style="font-size:32px;font-style:normal;font-weight:normal;line-height:125%;letter-spacing:0px;word-spacing:0px;fill:#ffcc00;fill-opacity:0.97647059;stroke:none;font-family:Code Bold;-inkscape-font-specification:Code Bold"
             id="path3914"
             inkscape:connector-curvature="0" />
        </g>
        <g
           transform="matrix(1.3702054,0,0,1.3702054,-669.02461,937.87484)"
           style="font-size:13.99170971px;font-style:normal;font-weight:normal;line-height:125%;letter-spacing:0px;word-spacing:0px;fill:#000000;fill-opacity:1;stroke:none;font-family:Continuum Bold;-inkscape-font-specification:Continuum Bold"
           id="text3852">
          <path
             d="m 218.36946,-39.062363 c -0.46173,0 -0.83951,0.349793 -0.83951,0.867486 0,0.419751 0.37778,0.853494 0.83951,0.853494 0.51769,0 0.88148,-0.433743 0.88148,-0.853494 0,-0.517693 -0.36379,-0.867486 -0.88148,-0.867486"
             style="font-style:normal;font-variant:normal;font-weight:bold;font-stretch:normal;font-family:Code Bold;-inkscape-font-specification:'Code Bold, Bold'"
             id="path3867"
             inkscape:connector-curvature="0" />
          <path
             d="m 225.47462,-39.062363 c -0.46172,0 -0.8395,0.349793 -0.8395,0.867486 0,0.419751 0.37778,0.853494 0.8395,0.853494 0.5177,0 0.88148,-0.433743 0.88148,-0.853494 0,-0.517693 -0.36378,-0.867486 -0.88148,-0.867486"
             style="font-style:normal;font-variant:normal;font-weight:bold;font-stretch:normal;font-family:Code Bold;-inkscape-font-specification:'Code Bold, Bold'"
             id="path3869"
             inkscape:connector-curvature="0" />
          <path
             d="m 232.57979,-39.062363 c -0.46173,0 -0.8395,0.349793 -0.8395,0.867486 0,0.419751 0.37777,0.853494 0.8395,0.853494 0.51769,0 0.88148,-0.433743 0.88148,-0.853494 0,-0.517693 -0.36379,-0.867486 -0.88148,-0.867486"
             style="font-style:normal;font-variant:normal;font-weight:bold;font-stretch:normal;font-family:Code Bold;-inkscape-font-specification:'Code Bold, Bold'"
             id="path3871"
             inkscape:connector-curvature="0" />
          <path
             d="m 238.9294,-42.252473 c 0,1.357195 0.55967,2.588467 1.39917,3.483936 0.8535,0.895468 2.05679,1.455138 3.386,1.455138 2.28064,0 4.07158,-1.511107 4.63125,-3.735787 l -1.38518,0 c -0.5037,1.48312 -1.76295,2.336616 -3.24607,2.336616 -0.93745,0 -1.79094,-0.405761 -2.40658,-1.049379 -0.61563,-0.643618 -1.0074,-1.511105 -1.0074,-2.490524 0,-1.007402 0.39177,-1.87489 1.0074,-2.518508 0.61564,-0.643618 1.46913,-1.049378 2.40658,-1.049378 1.44114,0 2.64443,0.741562 3.16212,2.21069 l 1.39917,0 c -0.55966,-2.210688 -2.32262,-3.609861 -4.56129,-3.609861 -1.32921,0 -2.5325,0.573661 -3.386,1.455138 -0.8395,0.895468 -1.39917,2.126741 -1.39917,3.511919"
             style="font-style:normal;font-variant:normal;font-weight:bold;font-stretch:normal;font-family:Code Bold;-inkscape-font-specification:'Code Bold, Bold'"
             id="path3873"
             inkscape:connector-curvature="0" />
          <path
             d="m 257.35561,-42.280456 c 0,1.007402 -0.40576,1.888881 -1.03539,2.532499 -0.65761,0.65761 -1.56707,1.06337 -2.5325,1.06337 -0.96542,0 -1.8609,-0.40576 -2.50451,-1.06337 -0.64362,-0.643618 -1.04938,-1.539089 -1.04938,-2.532499 0,-0.993411 0.40576,-1.888882 1.04938,-2.5325 0.64361,-0.65761 1.53909,-1.06337 2.50451,-1.06337 0.96543,0 1.87489,0.40576 2.5325,1.06337 0.62963,0.643618 1.03539,1.525098 1.03539,2.5325 m -8.54894,0 c 0,1.385177 0.57367,2.630442 1.45514,3.539902 0.89547,0.923452 2.15473,1.483121 3.52591,1.483121 1.38518,0 2.63045,-0.559669 3.53991,-1.483121 0.88147,-0.90946 1.45513,-2.154725 1.45513,-3.539902 0,-1.385178 -0.57366,-2.630443 -1.45513,-3.539903 -0.90946,-0.90946 -2.15473,-1.483121 -3.53991,-1.483121 -1.37118,0 -2.63044,0.573661 -3.52591,1.483121 -0.88147,0.90946 -1.45514,2.154725 -1.45514,3.539903"
             style="font-style:normal;font-variant:normal;font-weight:bold;font-stretch:normal;font-family:Code Bold;-inkscape-font-specification:'Code Bold, Bold'"
             id="path3875"
             inkscape:connector-curvature="0" />
          <path
             d="m 267.9587,-42.280456 c 0,1.007402 -0.40576,1.888881 -1.03539,2.532499 -0.65761,0.65761 -1.56707,1.06337 -2.5325,1.06337 -0.96542,0 -1.86089,-0.40576 -2.50451,-1.06337 -0.64362,-0.643618 -1.04938,-1.539089 -1.04938,-2.532499 0,-0.993411 0.40576,-1.888882 1.04938,-2.5325 0.64362,-0.65761 1.53909,-1.06337 2.50451,-1.06337 0.96543,0 1.87489,0.40576 2.5325,1.06337 0.62963,0.643618 1.03539,1.525098 1.03539,2.5325 m -8.54894,0 c 0,1.385177 0.57367,2.630442 1.45514,3.539902 0.89547,0.923452 2.15473,1.483121 3.52591,1.483121 1.38518,0 2.63045,-0.559669 3.53991,-1.483121 0.88147,-0.90946 1.45513,-2.154725 1.45513,-3.539902 0,-1.385178 -0.57366,-2.630443 -1.45513,-3.539903 -0.90946,-0.90946 -2.15473,-1.483121 -3.53991,-1.483121 -1.37118,0 -2.63044,0.573661 -3.52591,1.483121 -0.88147,0.90946 -1.45514,2.154725 -1.45514,3.539903"
             style="font-style:normal;font-variant:normal;font-weight:bold;font-stretch:normal;font-family:Code Bold;-inkscape-font-specification:'Code Bold, Bold'"
             id="path3877"
             inkscape:connector-curvature="0" />
          <path
             d="m 270.53733,-47.177555 0,9.794197 1.42715,0 0,-3.260068 2.15473,0 c 2.11274,0 3.17612,-1.62304 3.17612,-3.260069 0,-1.637028 -1.06338,-3.27406 -3.17612,-3.27406 l -3.58188,0 m 1.42715,5.134958 0,-3.707803 2.15473,0 c 1.18929,0 1.77694,0.923453 1.77694,1.860897 0,0.923452 -0.58765,1.846906 -1.77694,1.846906 l -2.15473,0"
             style="font-style:normal;font-variant:normal;font-weight:bold;font-stretch:normal;font-family:Code Bold;-inkscape-font-specification:'Code Bold, Bold'"
             id="path3879"
             inkscape:connector-curvature="0" />
          <path
             d="m 279.39692,-41.566879 4.43538,0 0,-1.427155 -4.43538,0 0,-2.756366 4.53332,0 0,-1.413163 -5.96047,0 0,9.780205 5.97446,0 0,-1.413163 -4.54731,0 0,-2.770358"
             style="font-style:normal;font-variant:normal;font-weight:bold;font-stretch:normal;font-family:Code Bold;-inkscape-font-specification:'Code Bold, Bold'"
             id="path3881"
             inkscape:connector-curvature="0" />
          <path
             d="m 286.5152,-41.678813 3.56789,4.295455 1.83291,0 -3.09216,-3.67982 c 1.679,-0.293825 2.5325,-1.609048 2.5325,-2.994226 0,-1.553078 -1.06338,-3.120151 -3.19011,-3.120151 l -3.56789,0 0,9.794197 1.39917,0 0,-8.367042 2.16872,0 c 1.18929,0 1.77694,0.853495 1.77694,1.692996 0,0.853494 -0.58765,1.706989 -1.77694,1.706989 l -2.25103,0 0.6,0.671602"
             style="font-style:normal;font-variant:normal;font-weight:bold;font-stretch:normal;font-family:Code Bold;-inkscape-font-specification:'Code Bold, Bold'"
             id="path3883"
             inkscape:connector-curvature="0"
             sodipodi:nodetypes="ccccssccccssscc" />
          <path
             d="m 296.09253,-45.050815 1.20329,3.455952 -2.43456,0 1.23127,-3.455952 m 2.92427,7.667457 1.5111,0 -3.93167,-9.920122 -1.03538,0 -3.93167,9.920122 1.52509,0 c 0.30782,-0.811518 0.79753,-1.986824 1.17531,-2.882292 l 3.51192,0 1.1753,2.882292"
             style="font-style:normal;font-variant:normal;font-weight:bold;font-stretch:normal;font-family:Code Bold;-inkscape-font-specification:'Code Bold, Bold'"
             id="path3885"
             inkscape:connector-curvature="0" />
          <path
             d="m 302.90823,-37.364454 0,-8.520951 2.95225,0 0,-1.315221 -7.33166,0 0,1.315221 2.96624,0 0,8.520951 1.41317,0"
             style="font-style:normal;font-variant:normal;font-weight:bold;font-stretch:normal;font-family:Code Bold;-inkscape-font-specification:'Code Bold, Bold'"
             id="path3887"
             inkscape:connector-curvature="0" />
          <path
             d="m 306.56996,-47.177734 0,1.390242 -0.005,0 0,6.967871 0.005,0 0,1.413163 1.41071,0 0,-1.413163 -0.003,0 0,-6.967871 0.003,0.0045 0,-1.399171"
             style="font-style:normal;font-variant:normal;font-weight:bold;font-stretch:normal;font-family:Code Bold;-inkscape-font-specification:'Code Bold, Bold'"
             id="path3889"
             inkscape:connector-curvature="0"
             sodipodi:nodetypes="cccccccccccc" />
          <path
             d="m 312.76555,-39.86897 -2.91027,-7.317664 -1.53909,0 3.93167,9.808188 1.03539,0 3.93167,-9.808188 -1.51111,0 -2.93826,7.317664"
             style="font-style:normal;font-variant:normal;font-weight:bold;font-stretch:normal;font-family:Code Bold;-inkscape-font-specification:'Code Bold, Bold'"
             id="path3891"
             inkscape:connector-curvature="0" />
          <path
             d="m 318.69397,-45.073886 1.20328,3.455952 -2.43455,0 1.23127,-3.455952 m 2.92426,7.667457 1.51111,0 -3.93167,-9.920122 -1.03539,0 -3.93167,9.920122 1.5251,0 c 0.30782,-0.811518 0.79753,-1.986824 1.1753,-2.882292 l 3.51192,0 1.1753,2.882292"
             style="font-style:normal;font-variant:normal;font-weight:bold;font-stretch:normal;font-family:Code Bold;-inkscape-font-specification:'Code Bold, Bold'"
             id="path3893"
             inkscape:connector-curvature="0" />
        </g>
      </g>
      <rect
         style="fill:#000000;fill-opacity:0.97647059;stroke:none"
         id="rect9030"
         width="242.71887"
         height="82.250259"
         x="739.72363"
         y="792.05017" />
      <g
         transform="matrix(0.39913529,0,0,0.39913529,717.96458,492.15053)"
         id="g9084">
        <g
           id="g8978"
           transform="matrix(3.2885795,0,0,3.2885795,1392.125,-1976.8396)">
          <g
             id="g8980"
             transform="matrix(1.25,0,0,-1.25,-638.1827,933.8251)"
             style="fill:#ffffff">
            <path
               inkscape:connector-curvature="0"
               id="path8982"
               style="font-size:32px;font-style:normal;font-weight:normal;line-height:125%;letter-spacing:0px;word-spacing:0px;fill:#ffffff;fill-opacity:1;stroke:none;font-family:Code Bold;-inkscape-font-specification:Code Bold"
               d="m 190.62585,59.537777 c -1.056,0 -1.92,-0.800001 -1.92,-1.984 0,-0.959999 0.864,-1.952 1.92,-1.952 1.184,0 2.016,0.992001 2.016,1.952 0,1.183999 -0.832,1.984 -2.016,1.984" />
            <path
               inkscape:connector-curvature="0"
               id="path8984"
               style="font-size:32px;font-style:normal;font-weight:normal;line-height:125%;letter-spacing:0px;word-spacing:0px;fill:#ffffff;fill-opacity:1;stroke:none;font-family:Code Bold;-inkscape-font-specification:Code Bold"
               d="m 201.92685,79.025902 2.65625,0 -8.125,-26.296875 -2.65625,0 8.125,26.296875" />
            <path
               inkscape:connector-curvature="0"
               id="path8986"
               style="font-size:32px;font-style:normal;font-weight:normal;line-height:125%;letter-spacing:0px;word-spacing:0px;fill:#ffffff;fill-opacity:1;stroke:none;font-family:Code Bold;-inkscape-font-specification:Code Bold"
               d="m 224.10235,66.897777 c 0,-2.303998 -0.928,-4.320002 -2.368,-5.792 -1.504,-1.503999 -3.584,-2.432 -5.792,-2.432 -2.208,0 -4.256,0.928001 -5.728,2.432 -1.472,1.471998 -2.4,3.520002 -2.4,5.792 0,2.271998 0.928,4.320001 2.4,5.792 1.472,1.503998 3.52,2.432 5.728,2.432 2.208,0 4.288,-0.928002 5.792,-2.432 1.44,-1.471999 2.368,-3.488003 2.368,-5.792 m -19.552,0 c 0,-3.167997 1.312,-6.016002 3.328,-8.096 2.048,-2.111998 4.928,-3.392 8.064,-3.392 3.168,0 6.016,1.280002 8.096,3.392 2.016,2.079998 3.328,4.928003 3.328,8.096 0,3.167997 -1.312,6.016002 -3.328,8.096 -2.08,2.079998 -4.928,3.392 -8.096,3.392 -3.136,0 -6.016,-1.312002 -8.064,-3.392 -2.016,-2.079998 -3.328,-4.928003 -3.328,-8.096" />
            <path
               inkscape:connector-curvature="0"
               id="path8988"
               style="font-size:32px;font-style:normal;font-weight:normal;line-height:125%;letter-spacing:0px;word-spacing:0px;fill:#ffffff;fill-opacity:0.99215686;stroke:none;font-family:Code Bold;-inkscape-font-specification:Code Bold"
               d="m 229.99985,78.097777 0,-22.4 3.264,0 0,7.456 4.928,0 c 4.83199,0 7.264,3.712004 7.264,7.456 0,3.743996 -2.43201,7.488 -7.264,7.488 l -8.192,0 m 3.264,-11.744 0,8.48 4.928,0 c 2.72,0 4.064,-2.112002 4.064,-4.256 0,-2.111998 -1.344,-4.224 -4.064,-4.224 l -4.928,0" />
            <path
               inkscape:connector-curvature="0"
               id="path8990"
               style="font-size:32px;font-style:normal;font-weight:normal;line-height:125%;letter-spacing:0px;word-spacing:0px;fill:#ffffff;fill-opacity:1;stroke:none;font-family:Code Bold;-inkscape-font-specification:Code Bold"
               d="m 245.71035,66.833777 c 0,-3.103997 1.28,-5.920002 3.2,-7.968 1.952,-2.047998 4.704,-3.328 7.744,-3.328 5.21599,0 9.312,3.456005 10.592,8.544 l -3.168,0 c -1.152,-3.391997 -4.032,-5.344 -7.424,-5.344 -2.144,0 -4.096,0.928001 -5.504,2.4 -1.408,1.471998 -2.304,3.456002 -2.304,5.696 0,2.303997 0.896,4.288001 2.304,5.76 1.408,1.471998 3.36,2.4 5.504,2.4 3.296,0 6.048,-1.696004 7.232,-5.056 l 3.2,0 c -1.28,5.055995 -5.31201,8.256 -10.432,8.256 -3.04,0 -5.792,-1.312002 -7.744,-3.328 -1.92,-2.047998 -3.2,-4.864003 -3.2,-8.032" />
            <path
               inkscape:connector-curvature="0"
               id="path8992"
               style="font-size:32px;font-style:normal;font-weight:normal;line-height:125%;letter-spacing:0px;word-spacing:0px;fill:#ffffff;fill-opacity:0.98039216;stroke:none;font-family:Code Bold;-inkscape-font-specification:Code Bold"
               d="m 287.85235,66.897777 c 0,-2.303998 -0.928,-4.320002 -2.368,-5.792 -1.504,-1.503999 -3.584,-2.432 -5.792,-2.432 -2.208,0 -4.256,0.928001 -5.728,2.432 -1.472,1.471998 -2.4,3.520002 -2.4,5.792 0,2.271998 0.928,4.320001 2.4,5.792 1.472,1.503998 3.52,2.432 5.728,2.432 2.208,0 4.288,-0.928002 5.792,-2.432 1.44,-1.471999 2.368,-3.488003 2.368,-5.792 m -19.552,0 c 0,-3.167997 1.312,-6.016002 3.328,-8.096 2.048,-2.111998 4.928,-3.392 8.064,-3.392 3.168,0 6.016,1.280002 8.096,3.392 2.016,2.079998 3.328,4.928003 3.328,8.096 0,3.167997 -1.312,6.016002 -3.328,8.096 -2.08,2.079998 -4.928,3.392 -8.096,3.392 -3.136,0 -6.016,-1.312002 -8.064,-3.392 -2.016,-2.079998 -3.328,-4.928003 -3.328,-8.096" />
            <path
               inkscape:connector-curvature="0"
               id="path8994"
               style="font-size:32px;font-style:normal;font-weight:normal;line-height:125%;letter-spacing:0px;word-spacing:0px;fill:#ffffff;fill-opacity:1;stroke:none;font-family:Code Bold;-inkscape-font-specification:Code Bold"
               d="m 296.39035,58.929777 0,15.904 4.8,0 c 5.18399,0 7.808,-4.000004 7.808,-7.968 0,-3.967996 -2.62401,-7.936 -7.808,-7.936 l -4.8,0 m -3.232,19.136 0,-22.368 8.032,0 c 7.32799,0 11.008,5.568005 11.008,11.168 0,5.599994 -3.68001,11.2 -11.008,11.2 l -8.032,0" />
            <path
               inkscape:connector-curvature="0"
               id="path8996"
               style="font-size:32px;font-style:normal;font-weight:normal;line-height:125%;letter-spacing:0px;word-spacing:0px;fill:#ffffff;fill-opacity:0.97647059;stroke:none;font-family:Code Bold;-inkscape-font-specification:Code Bold"
               d="m 317.07485,65.265777 10.144,0 0,3.264 -10.144,0 0,6.304 10.368,0 0,3.232 -13.632,0 0,-22.368 13.664,0 0,3.232 -10.4,0 0,6.336" />
          </g>
          <g
             id="g8998"
             style="font-size:13.99170971px;font-style:normal;font-weight:normal;line-height:125%;letter-spacing:0px;word-spacing:0px;fill:#ffffff;fill-opacity:1;stroke:none;font-family:Continuum Bold;-inkscape-font-specification:Continuum Bold"
             transform="matrix(1.3702054,0,0,1.3702054,-669.02461,937.87484)">
            <path
               inkscape:connector-curvature="0"
               id="path9000"
               style="font-style:normal;font-variant:normal;font-weight:bold;font-stretch:normal;fill:#ffffff;font-family:Code Bold;-inkscape-font-specification:'Code Bold, Bold'"
               d="m 218.36946,-39.062363 c -0.46173,0 -0.83951,0.349793 -0.83951,0.867486 0,0.419751 0.37778,0.853494 0.83951,0.853494 0.51769,0 0.88148,-0.433743 0.88148,-0.853494 0,-0.517693 -0.36379,-0.867486 -0.88148,-0.867486" />
            <path
               inkscape:connector-curvature="0"
               id="path9002"
               style="font-style:normal;font-variant:normal;font-weight:bold;font-stretch:normal;fill:#ffffff;font-family:Code Bold;-inkscape-font-specification:'Code Bold, Bold'"
               d="m 225.47462,-39.062363 c -0.46172,0 -0.8395,0.349793 -0.8395,0.867486 0,0.419751 0.37778,0.853494 0.8395,0.853494 0.5177,0 0.88148,-0.433743 0.88148,-0.853494 0,-0.517693 -0.36378,-0.867486 -0.88148,-0.867486" />
            <path
               inkscape:connector-curvature="0"
               id="path9004"
               style="font-style:normal;font-variant:normal;font-weight:bold;font-stretch:normal;fill:#ffffff;font-family:Code Bold;-inkscape-font-specification:'Code Bold, Bold'"
               d="m 232.57979,-39.062363 c -0.46173,0 -0.8395,0.349793 -0.8395,0.867486 0,0.419751 0.37777,0.853494 0.8395,0.853494 0.51769,0 0.88148,-0.433743 0.88148,-0.853494 0,-0.517693 -0.36379,-0.867486 -0.88148,-0.867486" />
            <path
               inkscape:connector-curvature="0"
               id="path9006"
               style="font-style:normal;font-variant:normal;font-weight:bold;font-stretch:normal;fill:#ffffff;font-family:Code Bold;-inkscape-font-specification:'Code Bold, Bold'"
               d="m 238.9294,-42.252473 c 0,1.357195 0.55967,2.588467 1.39917,3.483936 0.8535,0.895468 2.05679,1.455138 3.386,1.455138 2.28064,0 4.07158,-1.511107 4.63125,-3.735787 l -1.38518,0 c -0.5037,1.48312 -1.76295,2.336616 -3.24607,2.336616 -0.93745,0 -1.79094,-0.405761 -2.40658,-1.049379 -0.61563,-0.643618 -1.0074,-1.511105 -1.0074,-2.490524 0,-1.007402 0.39177,-1.87489 1.0074,-2.518508 0.61564,-0.643618 1.46913,-1.049378 2.40658,-1.049378 1.44114,0 2.64443,0.741562 3.16212,2.21069 l 1.39917,0 c -0.55966,-2.210688 -2.32262,-3.609861 -4.56129,-3.609861 -1.32921,0 -2.5325,0.573661 -3.386,1.455138 -0.8395,0.895468 -1.39917,2.126741 -1.39917,3.511919" />
            <path
               inkscape:connector-curvature="0"
               id="path9008"
               style="font-style:normal;font-variant:normal;font-weight:bold;font-stretch:normal;fill:#ffffff;font-family:Code Bold;-inkscape-font-specification:'Code Bold, Bold'"
               d="m 257.35561,-42.280456 c 0,1.007402 -0.40576,1.888881 -1.03539,2.532499 -0.65761,0.65761 -1.56707,1.06337 -2.5325,1.06337 -0.96542,0 -1.8609,-0.40576 -2.50451,-1.06337 -0.64362,-0.643618 -1.04938,-1.539089 -1.04938,-2.532499 0,-0.993411 0.40576,-1.888882 1.04938,-2.5325 0.64361,-0.65761 1.53909,-1.06337 2.50451,-1.06337 0.96543,0 1.87489,0.40576 2.5325,1.06337 0.62963,0.643618 1.03539,1.525098 1.03539,2.5325 m -8.54894,0 c 0,1.385177 0.57367,2.630442 1.45514,3.539902 0.89547,0.923452 2.15473,1.483121 3.52591,1.483121 1.38518,0 2.63045,-0.559669 3.53991,-1.483121 0.88147,-0.90946 1.45513,-2.154725 1.45513,-3.539902 0,-1.385178 -0.57366,-2.630443 -1.45513,-3.539903 -0.90946,-0.90946 -2.15473,-1.483121 -3.53991,-1.483121 -1.37118,0 -2.63044,0.573661 -3.52591,1.483121 -0.88147,0.90946 -1.45514,2.154725 -1.45514,3.539903" />
            <path
               inkscape:connector-curvature="0"
               id="path9010"
               style="font-style:normal;font-variant:normal;font-weight:bold;font-stretch:normal;fill:#ffffff;font-family:Code Bold;-inkscape-font-specification:'Code Bold, Bold'"
               d="m 267.9587,-42.280456 c 0,1.007402 -0.40576,1.888881 -1.03539,2.532499 -0.65761,0.65761 -1.56707,1.06337 -2.5325,1.06337 -0.96542,0 -1.86089,-0.40576 -2.50451,-1.06337 -0.64362,-0.643618 -1.04938,-1.539089 -1.04938,-2.532499 0,-0.993411 0.40576,-1.888882 1.04938,-2.5325 0.64362,-0.65761 1.53909,-1.06337 2.50451,-1.06337 0.96543,0 1.87489,0.40576 2.5325,1.06337 0.62963,0.643618 1.03539,1.525098 1.03539,2.5325 m -8.54894,0 c 0,1.385177 0.57367,2.630442 1.45514,3.539902 0.89547,0.923452 2.15473,1.483121 3.52591,1.483121 1.38518,0 2.63045,-0.559669 3.53991,-1.483121 0.88147,-0.90946 1.45513,-2.154725 1.45513,-3.539902 0,-1.385178 -0.57366,-2.630443 -1.45513,-3.539903 -0.90946,-0.90946 -2.15473,-1.483121 -3.53991,-1.483121 -1.37118,0 -2.63044,0.573661 -3.52591,1.483121 -0.88147,0.90946 -1.45514,2.154725 -1.45514,3.539903" />
            <path
               inkscape:connector-curvature="0"
               id="path9012"
               style="font-style:normal;font-variant:normal;font-weight:bold;font-stretch:normal;fill:#ffffff;font-family:Code Bold;-inkscape-font-specification:'Code Bold, Bold'"
               d="m 270.53733,-47.177555 0,9.794197 1.42715,0 0,-3.260068 2.15473,0 c 2.11274,0 3.17612,-1.62304 3.17612,-3.260069 0,-1.637028 -1.06338,-3.27406 -3.17612,-3.27406 l -3.58188,0 m 1.42715,5.134958 0,-3.707803 2.15473,0 c 1.18929,0 1.77694,0.923453 1.77694,1.860897 0,0.923452 -0.58765,1.846906 -1.77694,1.846906 l -2.15473,0" />
            <path
               inkscape:connector-curvature="0"
               id="path9014"
               style="font-style:normal;font-variant:normal;font-weight:bold;font-stretch:normal;fill:#ffffff;font-family:Code Bold;-inkscape-font-specification:'Code Bold, Bold'"
               d="m 279.39692,-41.566879 4.43538,0 0,-1.427155 -4.43538,0 0,-2.756366 4.53332,0 0,-1.413163 -5.96047,0 0,9.780205 5.97446,0 0,-1.413163 -4.54731,0 0,-2.770358" />
            <path
               sodipodi:nodetypes="ccccssccccssscc"
               inkscape:connector-curvature="0"
               id="path9016"
               style="font-style:normal;font-variant:normal;font-weight:bold;font-stretch:normal;fill:#ffffff;font-family:Code Bold;-inkscape-font-specification:'Code Bold, Bold'"
               d="m 286.5152,-41.678813 3.56789,4.295455 1.83291,0 -3.09216,-3.67982 c 1.679,-0.293825 2.5325,-1.609048 2.5325,-2.994226 0,-1.553078 -1.06338,-3.120151 -3.19011,-3.120151 l -3.56789,0 0,9.794197 1.39917,0 0,-8.367042 2.16872,0 c 1.18929,0 1.77694,0.853495 1.77694,1.692996 0,0.853494 -0.58765,1.706989 -1.77694,1.706989 l -2.25103,0 0.6,0.671602" />
            <path
               inkscape:connector-curvature="0"
               id="path9018"
               style="font-style:normal;font-variant:normal;font-weight:bold;font-stretch:normal;fill:#ffffff;font-family:Code Bold;-inkscape-font-specification:'Code Bold, Bold'"
               d="m 296.09253,-45.050815 1.20329,3.455952 -2.43456,0 1.23127,-3.455952 m 2.92427,7.667457 1.5111,0 -3.93167,-9.920122 -1.03538,0 -3.93167,9.920122 1.52509,0 c 0.30782,-0.811518 0.79753,-1.986824 1.17531,-2.882292 l 3.51192,0 1.1753,2.882292" />
            <path
               inkscape:connector-curvature="0"
               id="path9020"
               style="font-style:normal;font-variant:normal;font-weight:bold;font-stretch:normal;fill:#ffffff;font-family:Code Bold;-inkscape-font-specification:'Code Bold, Bold'"
               d="m 302.90823,-37.364454 0,-8.520951 2.95225,0 0,-1.315221 -7.33166,0 0,1.315221 2.96624,0 0,8.520951 1.41317,0" />
            <path
               sodipodi:nodetypes="cccccccccccc"
               inkscape:connector-curvature="0"
               id="path9022"
               style="font-style:normal;font-variant:normal;font-weight:bold;font-stretch:normal;fill:#ffffff;font-family:Code Bold;-inkscape-font-specification:'Code Bold, Bold'"
               d="m 306.56996,-47.177734 0,1.390242 -0.005,0 0,6.967871 0.005,0 0,1.413163 1.41071,0 0,-1.413163 -0.003,0 0,-6.967871 0.003,0.0045 0,-1.399171" />
            <path
               inkscape:connector-curvature="0"
               id="path9024"
               style="font-style:normal;font-variant:normal;font-weight:bold;font-stretch:normal;fill:#ffffff;font-family:Code Bold;-inkscape-font-specification:'Code Bold, Bold'"
               d="m 312.76555,-39.86897 -2.91027,-7.317664 -1.53909,0 3.93167,9.808188 1.03539,0 3.93167,-9.808188 -1.51111,0 -2.93826,7.317664" />
            <path
               inkscape:connector-curvature="0"
               id="path9026"
               style="font-style:normal;font-variant:normal;font-weight:bold;font-stretch:normal;fill:#ffffff;font-family:Code Bold;-inkscape-font-specification:'Code Bold, Bold'"
               d="m 318.69397,-45.073886 1.20328,3.455952 -2.43455,0 1.23127,-3.455952 m 2.92426,7.667457 1.51111,0 -3.93167,-9.920122 -1.03539,0 -3.93167,9.920122 1.5251,0 c 0.30782,-0.811518 0.79753,-1.986824 1.1753,-2.882292 l 3.51192,0 1.1753,2.882292" />
          </g>
        </g>
      </g>
      <rect
         y="702.1394"
         x="740.12689"
         height="82.250259"
         width="242.71887"
         id="rect9032"
         style="fill:#000000;fill-opacity:0.97647059;stroke:none" />
      <g
         id="g9034"
         transform="matrix(1.3125881,0,0,1.3125881,1274.014,-386.7867)">
        <g
           id="g9036"
           transform="matrix(1.25,0,0,-1.25,-638.1827,933.8251)">
          <path
             inkscape:connector-curvature="0"
             id="path9038"
             style="font-size:32px;font-style:normal;font-weight:normal;line-height:125%;letter-spacing:0px;word-spacing:0px;fill:#ffffff;fill-opacity:1;stroke:none;font-family:Code Bold;-inkscape-font-specification:Code Bold"
             d="m 190.62585,59.537777 c -1.056,0 -1.92,-0.800001 -1.92,-1.984 0,-0.959999 0.864,-1.952 1.92,-1.952 1.184,0 2.016,0.992001 2.016,1.952 0,1.183999 -0.832,1.984 -2.016,1.984" />
          <path
             inkscape:connector-curvature="0"
             id="path9040"
             style="font-size:32px;font-style:normal;font-weight:normal;line-height:125%;letter-spacing:0px;word-spacing:0px;fill:#ffffff;fill-opacity:1;stroke:none;font-family:Code Bold;-inkscape-font-specification:Code Bold"
             d="m 201.92685,79.025902 2.65625,0 -8.125,-26.296875 -2.65625,0 8.125,26.296875" />
          <path
             inkscape:connector-curvature="0"
             id="path9042"
             style="font-size:32px;font-style:normal;font-weight:normal;line-height:125%;letter-spacing:0px;word-spacing:0px;fill:#1caa24;fill-opacity:1;stroke:none;font-family:Code Bold;-inkscape-font-specification:Code Bold"
             d="m 224.10235,66.897777 c 0,-2.303998 -0.928,-4.320002 -2.368,-5.792 -1.504,-1.503999 -3.584,-2.432 -5.792,-2.432 -2.208,0 -4.256,0.928001 -5.728,2.432 -1.472,1.471998 -2.4,3.520002 -2.4,5.792 0,2.271998 0.928,4.320001 2.4,5.792 1.472,1.503998 3.52,2.432 5.728,2.432 2.208,0 4.288,-0.928002 5.792,-2.432 1.44,-1.471999 2.368,-3.488003 2.368,-5.792 m -19.552,0 c 0,-3.167997 1.312,-6.016002 3.328,-8.096 2.048,-2.111998 4.928,-3.392 8.064,-3.392 3.168,0 6.016,1.280002 8.096,3.392 2.016,2.079998 3.328,4.928003 3.328,8.096 0,3.167997 -1.312,6.016002 -3.328,8.096 -2.08,2.079998 -4.928,3.392 -8.096,3.392 -3.136,0 -6.016,-1.312002 -8.064,-3.392 -2.016,-2.079998 -3.328,-4.928003 -3.328,-8.096" />
          <path
             inkscape:connector-curvature="0"
             id="path9044"
             style="font-size:32px;font-style:normal;font-weight:normal;line-height:125%;letter-spacing:0px;word-spacing:0px;fill:#148e8a;fill-opacity:0.99215686;stroke:none;font-family:Code Bold;-inkscape-font-specification:Code Bold"
             d="m 229.99985,78.097777 0,-22.4 3.264,0 0,7.456 4.928,0 c 4.83199,0 7.264,3.712004 7.264,7.456 0,3.743996 -2.43201,7.488 -7.264,7.488 l -8.192,0 m 3.264,-11.744 0,8.48 4.928,0 c 2.72,0 4.064,-2.112002 4.064,-4.256 0,-2.111998 -1.344,-4.224 -4.064,-4.224 l -4.928,0" />
          <path
             inkscape:connector-curvature="0"
             id="path9046"
             style="font-size:32px;font-style:normal;font-weight:normal;line-height:125%;letter-spacing:0px;word-spacing:0px;fill:#783f67;fill-opacity:1;stroke:none;font-family:Code Bold;-inkscape-font-specification:Code Bold"
             d="m 245.71035,66.833777 c 0,-3.103997 1.28,-5.920002 3.2,-7.968 1.952,-2.047998 4.704,-3.328 7.744,-3.328 5.21599,0 9.312,3.456005 10.592,8.544 l -3.168,0 c -1.152,-3.391997 -4.032,-5.344 -7.424,-5.344 -2.144,0 -4.096,0.928001 -5.504,2.4 -1.408,1.471998 -2.304,3.456002 -2.304,5.696 0,2.303997 0.896,4.288001 2.304,5.76 1.408,1.471998 3.36,2.4 5.504,2.4 3.296,0 6.048,-1.696004 7.232,-5.056 l 3.2,0 c -1.28,5.055995 -5.31201,8.256 -10.432,8.256 -3.04,0 -5.792,-1.312002 -7.744,-3.328 -1.92,-2.047998 -3.2,-4.864003 -3.2,-8.032" />
          <path
             inkscape:connector-curvature="0"
             id="path9048"
             style="font-size:32px;font-style:normal;font-weight:normal;line-height:125%;letter-spacing:0px;word-spacing:0px;fill:#d3000c;fill-opacity:0.98039216;stroke:none;font-family:Code Bold;-inkscape-font-specification:Code Bold"
             d="m 287.85235,66.897777 c 0,-2.303998 -0.928,-4.320002 -2.368,-5.792 -1.504,-1.503999 -3.584,-2.432 -5.792,-2.432 -2.208,0 -4.256,0.928001 -5.728,2.432 -1.472,1.471998 -2.4,3.520002 -2.4,5.792 0,2.271998 0.928,4.320001 2.4,5.792 1.472,1.503998 3.52,2.432 5.728,2.432 2.208,0 4.288,-0.928002 5.792,-2.432 1.44,-1.471999 2.368,-3.488003 2.368,-5.792 m -19.552,0 c 0,-3.167997 1.312,-6.016002 3.328,-8.096 2.048,-2.111998 4.928,-3.392 8.064,-3.392 3.168,0 6.016,1.280002 8.096,3.392 2.016,2.079998 3.328,4.928003 3.328,8.096 0,3.167997 -1.312,6.016002 -3.328,8.096 -2.08,2.079998 -4.928,3.392 -8.096,3.392 -3.136,0 -6.016,-1.312002 -8.064,-3.392 -2.016,-2.079998 -3.328,-4.928003 -3.328,-8.096" />
          <path
             inkscape:connector-curvature="0"
             id="path9050"
             style="font-size:32px;font-style:normal;font-weight:normal;line-height:125%;letter-spacing:0px;word-spacing:0px;fill:#ff6600;fill-opacity:1;stroke:none;font-family:Code Bold;-inkscape-font-specification:Code Bold"
             d="m 296.39035,58.929777 0,15.904 4.8,0 c 5.18399,0 7.808,-4.000004 7.808,-7.968 0,-3.967996 -2.62401,-7.936 -7.808,-7.936 l -4.8,0 m -3.232,19.136 0,-22.368 8.032,0 c 7.32799,0 11.008,5.568005 11.008,11.168 0,5.599994 -3.68001,11.2 -11.008,11.2 l -8.032,0" />
          <path
             inkscape:connector-curvature="0"
             id="path9052"
             style="font-size:32px;font-style:normal;font-weight:normal;line-height:125%;letter-spacing:0px;word-spacing:0px;fill:#ffcc00;fill-opacity:0.97647059;stroke:none;font-family:Code Bold;-inkscape-font-specification:Code Bold"
             d="m 317.07485,65.265777 10.144,0 0,3.264 -10.144,0 0,6.304 10.368,0 0,3.232 -13.632,0 0,-22.368 13.664,0 0,3.232 -10.4,0 0,6.336" />
        </g>
        <g
           id="g9054"
           style="font-size:13.99170971px;font-style:normal;font-weight:normal;line-height:125%;letter-spacing:0px;word-spacing:0px;fill:#ffffff;fill-opacity:1;stroke:none;font-family:Continuum Bold;-inkscape-font-specification:Continuum Bold"
           transform="matrix(1.3702054,0,0,1.3702054,-669.02461,937.87484)">
          <path
             inkscape:connector-curvature="0"
             id="path9056"
             style="font-style:normal;font-variant:normal;font-weight:bold;font-stretch:normal;fill:#ffffff;font-family:Code Bold;-inkscape-font-specification:'Code Bold, Bold'"
             d="m 218.36946,-39.062363 c -0.46173,0 -0.83951,0.349793 -0.83951,0.867486 0,0.419751 0.37778,0.853494 0.83951,0.853494 0.51769,0 0.88148,-0.433743 0.88148,-0.853494 0,-0.517693 -0.36379,-0.867486 -0.88148,-0.867486" />
          <path
             inkscape:connector-curvature="0"
             id="path9058"
             style="font-style:normal;font-variant:normal;font-weight:bold;font-stretch:normal;fill:#ffffff;font-family:Code Bold;-inkscape-font-specification:'Code Bold, Bold'"
             d="m 225.47462,-39.062363 c -0.46172,0 -0.8395,0.349793 -0.8395,0.867486 0,0.419751 0.37778,0.853494 0.8395,0.853494 0.5177,0 0.88148,-0.433743 0.88148,-0.853494 0,-0.517693 -0.36378,-0.867486 -0.88148,-0.867486" />
          <path
             inkscape:connector-curvature="0"
             id="path9060"
             style="font-style:normal;font-variant:normal;font-weight:bold;font-stretch:normal;fill:#ffffff;font-family:Code Bold;-inkscape-font-specification:'Code Bold, Bold'"
             d="m 232.57979,-39.062363 c -0.46173,0 -0.8395,0.349793 -0.8395,0.867486 0,0.419751 0.37777,0.853494 0.8395,0.853494 0.51769,0 0.88148,-0.433743 0.88148,-0.853494 0,-0.517693 -0.36379,-0.867486 -0.88148,-0.867486" />
          <path
             inkscape:connector-curvature="0"
             id="path9062"
             style="font-style:normal;font-variant:normal;font-weight:bold;font-stretch:normal;fill:#ffffff;font-family:Code Bold;-inkscape-font-specification:'Code Bold, Bold'"
             d="m 238.9294,-42.252473 c 0,1.357195 0.55967,2.588467 1.39917,3.483936 0.8535,0.895468 2.05679,1.455138 3.386,1.455138 2.28064,0 4.07158,-1.511107 4.63125,-3.735787 l -1.38518,0 c -0.5037,1.48312 -1.76295,2.336616 -3.24607,2.336616 -0.93745,0 -1.79094,-0.405761 -2.40658,-1.049379 -0.61563,-0.643618 -1.0074,-1.511105 -1.0074,-2.490524 0,-1.007402 0.39177,-1.87489 1.0074,-2.518508 0.61564,-0.643618 1.46913,-1.049378 2.40658,-1.049378 1.44114,0 2.64443,0.741562 3.16212,2.21069 l 1.39917,0 c -0.55966,-2.210688 -2.32262,-3.609861 -4.56129,-3.609861 -1.32921,0 -2.5325,0.573661 -3.386,1.455138 -0.8395,0.895468 -1.39917,2.126741 -1.39917,3.511919" />
          <path
             inkscape:connector-curvature="0"
             id="path9064"
             style="font-style:normal;font-variant:normal;font-weight:bold;font-stretch:normal;fill:#ffffff;font-family:Code Bold;-inkscape-font-specification:'Code Bold, Bold'"
             d="m 257.35561,-42.280456 c 0,1.007402 -0.40576,1.888881 -1.03539,2.532499 -0.65761,0.65761 -1.56707,1.06337 -2.5325,1.06337 -0.96542,0 -1.8609,-0.40576 -2.50451,-1.06337 -0.64362,-0.643618 -1.04938,-1.539089 -1.04938,-2.532499 0,-0.993411 0.40576,-1.888882 1.04938,-2.5325 0.64361,-0.65761 1.53909,-1.06337 2.50451,-1.06337 0.96543,0 1.87489,0.40576 2.5325,1.06337 0.62963,0.643618 1.03539,1.525098 1.03539,2.5325 m -8.54894,0 c 0,1.385177 0.57367,2.630442 1.45514,3.539902 0.89547,0.923452 2.15473,1.483121 3.52591,1.483121 1.38518,0 2.63045,-0.559669 3.53991,-1.483121 0.88147,-0.90946 1.45513,-2.154725 1.45513,-3.539902 0,-1.385178 -0.57366,-2.630443 -1.45513,-3.539903 -0.90946,-0.90946 -2.15473,-1.483121 -3.53991,-1.483121 -1.37118,0 -2.63044,0.573661 -3.52591,1.483121 -0.88147,0.90946 -1.45514,2.154725 -1.45514,3.539903" />
          <path
             inkscape:connector-curvature="0"
             id="path9066"
             style="font-style:normal;font-variant:normal;font-weight:bold;font-stretch:normal;fill:#ffffff;font-family:Code Bold;-inkscape-font-specification:'Code Bold, Bold'"
             d="m 267.9587,-42.280456 c 0,1.007402 -0.40576,1.888881 -1.03539,2.532499 -0.65761,0.65761 -1.56707,1.06337 -2.5325,1.06337 -0.96542,0 -1.86089,-0.40576 -2.50451,-1.06337 -0.64362,-0.643618 -1.04938,-1.539089 -1.04938,-2.532499 0,-0.993411 0.40576,-1.888882 1.04938,-2.5325 0.64362,-0.65761 1.53909,-1.06337 2.50451,-1.06337 0.96543,0 1.87489,0.40576 2.5325,1.06337 0.62963,0.643618 1.03539,1.525098 1.03539,2.5325 m -8.54894,0 c 0,1.385177 0.57367,2.630442 1.45514,3.539902 0.89547,0.923452 2.15473,1.483121 3.52591,1.483121 1.38518,0 2.63045,-0.559669 3.53991,-1.483121 0.88147,-0.90946 1.45513,-2.154725 1.45513,-3.539902 0,-1.385178 -0.57366,-2.630443 -1.45513,-3.539903 -0.90946,-0.90946 -2.15473,-1.483121 -3.53991,-1.483121 -1.37118,0 -2.63044,0.573661 -3.52591,1.483121 -0.88147,0.90946 -1.45514,2.154725 -1.45514,3.539903" />
          <path
             inkscape:connector-curvature="0"
             id="path9068"
             style="font-style:normal;font-variant:normal;font-weight:bold;font-stretch:normal;fill:#ffffff;font-family:Code Bold;-inkscape-font-specification:'Code Bold, Bold'"
             d="m 270.53733,-47.177555 0,9.794197 1.42715,0 0,-3.260068 2.15473,0 c 2.11274,0 3.17612,-1.62304 3.17612,-3.260069 0,-1.637028 -1.06338,-3.27406 -3.17612,-3.27406 l -3.58188,0 m 1.42715,5.134958 0,-3.707803 2.15473,0 c 1.18929,0 1.77694,0.923453 1.77694,1.860897 0,0.923452 -0.58765,1.846906 -1.77694,1.846906 l -2.15473,0" />
          <path
             inkscape:connector-curvature="0"
             id="path9070"
             style="font-style:normal;font-variant:normal;font-weight:bold;font-stretch:normal;fill:#ffffff;font-family:Code Bold;-inkscape-font-specification:'Code Bold, Bold'"
             d="m 279.39692,-41.566879 4.43538,0 0,-1.427155 -4.43538,0 0,-2.756366 4.53332,0 0,-1.413163 -5.96047,0 0,9.780205 5.97446,0 0,-1.413163 -4.54731,0 0,-2.770358" />
          <path
             sodipodi:nodetypes="ccccssccccssscc"
             inkscape:connector-curvature="0"
             id="path9072"
             style="font-style:normal;font-variant:normal;font-weight:bold;font-stretch:normal;fill:#ffffff;font-family:Code Bold;-inkscape-font-specification:'Code Bold, Bold'"
             d="m 286.5152,-41.678813 3.56789,4.295455 1.83291,0 -3.09216,-3.67982 c 1.679,-0.293825 2.5325,-1.609048 2.5325,-2.994226 0,-1.553078 -1.06338,-3.120151 -3.19011,-3.120151 l -3.56789,0 0,9.794197 1.39917,0 0,-8.367042 2.16872,0 c 1.18929,0 1.77694,0.853495 1.77694,1.692996 0,0.853494 -0.58765,1.706989 -1.77694,1.706989 l -2.25103,0 0.6,0.671602" />
          <path
             inkscape:connector-curvature="0"
             id="path9074"
             style="font-style:normal;font-variant:normal;font-weight:bold;font-stretch:normal;fill:#ffffff;font-family:Code Bold;-inkscape-font-specification:'Code Bold, Bold'"
             d="m 296.09253,-45.050815 1.20329,3.455952 -2.43456,0 1.23127,-3.455952 m 2.92427,7.667457 1.5111,0 -3.93167,-9.920122 -1.03538,0 -3.93167,9.920122 1.52509,0 c 0.30782,-0.811518 0.79753,-1.986824 1.17531,-2.882292 l 3.51192,0 1.1753,2.882292" />
          <path
             inkscape:connector-curvature="0"
             id="path9076"
             style="font-style:normal;font-variant:normal;font-weight:bold;font-stretch:normal;fill:#ffffff;font-family:Code Bold;-inkscape-font-specification:'Code Bold, Bold'"
             d="m 302.90823,-37.364454 0,-8.520951 2.95225,0 0,-1.315221 -7.33166,0 0,1.315221 2.96624,0 0,8.520951 1.41317,0" />
          <path
             sodipodi:nodetypes="cccccccccccc"
             inkscape:connector-curvature="0"
             id="path9078"
             style="font-style:normal;font-variant:normal;font-weight:bold;font-stretch:normal;fill:#ffffff;font-family:Code Bold;-inkscape-font-specification:'Code Bold, Bold'"
             d="m 306.56996,-47.177734 0,1.390242 -0.005,0 0,6.967871 0.005,0 0,1.413163 1.41071,0 0,-1.413163 -0.003,0 0,-6.967871 0.003,0.0045 0,-1.399171" />
          <path
             inkscape:connector-curvature="0"
             id="path9080"
             style="font-style:normal;font-variant:normal;font-weight:bold;font-stretch:normal;fill:#ffffff;font-family:Code Bold;-inkscape-font-specification:'Code Bold, Bold'"
             d="m 312.76555,-39.86897 -2.91027,-7.317664 -1.53909,0 3.93167,9.808188 1.03539,0 3.93167,-9.808188 -1.51111,0 -2.93826,7.317664" />
          <path
             inkscape:connector-curvature="0"
             id="path9082"
             style="font-style:normal;font-variant:normal;font-weight:bold;font-stretch:normal;fill:#ffffff;font-family:Code Bold;-inkscape-font-specification:'Code Bold, Bold'"
             d="m 318.69397,-45.073886 1.20328,3.455952 -2.43455,0 1.23127,-3.455952 m 2.92426,7.667457 1.51111,0 -3.93167,-9.920122 -1.03539,0 -3.93167,9.920122 1.5251,0 c 0.30782,-0.811518 0.79753,-1.986824 1.1753,-2.882292 l 3.51192,0 1.1753,2.882292" />
        </g>
      </g>
    </g>
  </g>
</svg>
