<?xml version="1.0" encoding="UTF-8" standalone="no"?>
<!-- Created with Inkscape (http://www.inkscape.org/) -->

<svg
   xmlns:dc="http://purl.org/dc/elements/1.1/"
   xmlns:cc="http://creativecommons.org/ns#"
   xmlns:rdf="http://www.w3.org/1999/02/22-rdf-syntax-ns#"
   xmlns:svg="http://www.w3.org/2000/svg"
   xmlns="http://www.w3.org/2000/svg"
   xmlns:sodipodi="http://sodipodi.sourceforge.net/DTD/sodipodi-0.dtd"
   xmlns:inkscape="http://www.inkscape.org/namespaces/inkscape"
   width="744.09448"
   height="744.09003"
   id="svg6193"
   version="1.1"
   inkscape:version="0.48.3.1 r9886"
   sodipodi:docname="Nuevo documento 4">
  <defs
     id="defs6195" />
  <sodipodi:namedview
     id="base"
     pagecolor="#ffffff"
     bordercolor="#666666"
     borderopacity="1.0"
     inkscape:pageopacity="0.0"
     inkscape:pageshadow="2"
     inkscape:zoom="0.49497475"
     inkscape:cx="350"
     inkscape:cy="520"
     inkscape:document-units="px"
     inkscape:current-layer="layer1"
     showgrid="false"
     inkscape:window-width="1231"
     inkscape:window-height="776"
     inkscape:window-x="49"
     inkscape:window-y="24"
     inkscape:window-maximized="1" />
  <metadata
     id="metadata6198">
    <rdf:RDF>
      <cc:Work
         rdf:about="">
        <dc:format>image/svg+xml</dc:format>
        <dc:type
           rdf:resource="http://purl.org/dc/dcmitype/StillImage" />
        <dc:title></dc:title>
      </cc:Work>
    </rdf:RDF>
  </metadata>
  <g
     inkscape:label="Capa 1"
     inkscape:groupmode="layer"
     id="layer1"
     transform="translate(0,-308.27218)">
    <path
       d="m 683.43009,668.47298 -205.30499,0 0,-289.05876 205.30499,0 0,289.05876 z"
       style="fill:#292929;fill-opacity:1;fill-rule:nonzero;stroke:none"
       id="path3130"
       inkscape:connector-curvature="0" />
    <g
       id="g5554"
       transform="translate(3.5529671,151.77219)">
      <g
         transform="matrix(1.25,0,0,-1.25,63.308469,690.22731)"
         id="g3132">
        <path
           inkscape:connector-curvature="0"
           id="path3134"
           style="fill:#6c4572;fill-opacity:1;fill-rule:nonzero;stroke:none"
           d="m 0,0 -7.585,0 0,52.574 6.158,0 17.35,-25.537 17.348,25.537 6.009,0 0,-52.574 -7.51,0 0,37.027 -13.745,-20.429 -4.281,0 L 0,37.027 0,0 z" />
      </g>
      <g
         transform="matrix(1.25,0,0,-1.25,132.11522,661.96807)"
         id="g3136">
        <path
           inkscape:connector-curvature="0"
           id="path3138"
           style="fill:#6c4572;fill-opacity:1;fill-rule:nonzero;stroke:none"
           d="M 0,0 13.068,0 6.609,18.551 0,0 z m 15.998,-7.135 -18.852,0 c -2.027,-4.806 -4.656,-11.117 -6.309,-15.472 l -8.186,0 21.104,53.25 5.558,0 21.104,-53.25 -8.111,0 -6.308,15.472 z" />
      </g>
      <g
         transform="matrix(1.25,0,0,-1.25,177.73597,680.74494)"
         id="g3140">
        <path
           inkscape:connector-curvature="0"
           id="path3142"
           style="fill:#6c4572;fill-opacity:1;fill-rule:nonzero;stroke:none"
           d="m 0,0 24.709,0 0,-7.586 -32.294,0 0,52.498 7.585,0 L 0,0 z" />
      </g>
      <g
         transform="matrix(1.25,0,0,-1.25,216.78384,681.02569)"
         id="g3144">
        <path
           inkscape:connector-curvature="0"
           id="path3146"
           style="fill:#6c4572;fill-opacity:1;fill-rule:nonzero;stroke:none"
           d="m 0,0 16.223,0 c 5.107,0 7.66,4.279 7.66,8.41 0,4.131 -2.553,8.338 -7.66,8.338 L 0,16.748 0,0 z m 0,24.258 14.195,0 c 8.262,0 8.411,13.67 0.15,13.67 L 0,37.928 0,24.258 z m 14.345,20.879 c 6.609,0 10.815,-3.756 12.768,-8.637 C 29.215,31.316 28.54,25.311 23.282,21.555 29.291,19 31.469,13.443 31.469,8.486 31.469,0.6 26.287,-7.361 16.223,-7.361 l -23.734,0 0,52.498 21.856,0 z" />
      </g>
      <g
         transform="matrix(1.25,0,0,-1.25,264.84409,680.74494)"
         id="g3148">
        <path
           inkscape:connector-curvature="0"
           id="path3150"
           style="fill:#6c4572;fill-opacity:1;fill-rule:nonzero;stroke:none"
           d="m 0,0 24.409,0 0,-7.586 -32.07,0 0,52.498 31.995,0 0,-7.586 -24.334,0 0,-14.795 23.808,0 0,-7.66 L 0,14.871 0,0 z" />
      </g>
      <g
         transform="matrix(1.25,0,0,-1.25,301.16859,633.99206)"
         id="g3152">
        <path
           inkscape:connector-curvature="0"
           id="path3154"
           style="fill:#6c4572;fill-opacity:1;fill-rule:nonzero;stroke:none"
           d="m 0,0 c 4.581,4.73 11.041,7.811 18.175,7.811 12.016,0 21.48,-7.51 24.484,-19.377 l -7.51,0 C 32.37,-3.682 25.911,0.301 18.175,0.301 c -5.032,0 -9.613,-2.178 -12.918,-5.633 -3.305,-3.455 -5.407,-8.111 -5.407,-13.52 0,-5.257 2.102,-9.914 5.407,-13.369 3.305,-3.455 7.886,-5.633 12.918,-5.633 7.961,0 14.721,4.583 17.424,12.543 l 7.436,0 c -3.005,-11.941 -12.618,-20.054 -24.86,-20.054 -7.134,0 -13.594,3.006 -18.175,7.812 -4.507,4.807 -7.511,11.416 -7.511,18.701 0,7.436 3.004,14.045 7.511,18.852" />
      </g>
      <g
         transform="matrix(1.25,0,0,-1.25,60.066344,735.70594)"
         id="g3156">
        <path
           inkscape:connector-curvature="0"
           id="path3158"
           style="fill:#6c4572;fill-opacity:1;fill-rule:nonzero;stroke:none"
           d="m 0,0 10.146,0 c 3.192,0 4.789,2.678 4.789,5.262 0,2.58 -1.597,5.211 -4.789,5.211 L 0,10.473 0,0 z m 0,15.172 8.877,0 c 5.166,0 5.261,8.547 0.094,8.547 l -8.971,0 0,-8.547 z m 8.971,13.055 c 4.133,0 6.763,-2.348 7.985,-5.401 1.315,-3.242 0.892,-6.998 -2.396,-9.347 3.757,-1.596 5.119,-5.073 5.119,-8.172 0,-4.932 -3.241,-9.911 -9.533,-9.911 l -14.843,0 0,32.831 13.668,0 z" />
      </g>
      <g
         transform="matrix(1.25,0,0,-1.25,89.425969,720.61794)"
         id="g3160">
        <path
           inkscape:connector-curvature="0"
           id="path3162"
           style="fill:#6c4572;fill-opacity:1;fill-rule:nonzero;stroke:none"
           d="m 0,0 7.568,0 c 3.992,0 5.965,2.865 5.965,5.73 0,2.819 -1.973,5.684 -5.965,5.684 l -7.28,0 0,-28.088 -4.697,0 0,32.877 11.977,0 c 7.14,0 10.709,-5.258 10.709,-10.473 0,-4.65 -2.866,-9.064 -8.502,-10.05 l 10.38,-12.354 -6.153,0 L 2.026,-2.254 0,0 z" />
      </g>
      <g
         transform="matrix(1.25,0,0,-1.25,142.72922,710.28594)"
         id="g3164">
        <path
           inkscape:connector-curvature="0"
           id="path3166"
           style="fill:#6c4572;fill-opacity:1;fill-rule:nonzero;stroke:none"
           d="m 0,0 c -2.207,2.209 -5.26,3.57 -8.501,3.57 -3.241,0 -6.247,-1.361 -8.407,-3.57 -2.161,-2.158 -3.523,-5.164 -3.523,-8.5 0,-3.334 1.362,-6.34 3.523,-8.502 2.16,-2.207 5.166,-3.568 8.407,-3.568 3.241,0 6.294,1.361 8.501,3.568 2.114,2.162 3.477,5.121 3.477,8.502 0,3.381 -1.363,6.342 -3.477,8.5 m -20.336,3.383 c 3.005,3.055 7.232,4.978 11.835,4.978 4.65,0 8.83,-1.923 11.883,-4.978 C 6.341,0.33 8.267,-3.852 8.267,-8.5 c 0,-4.65 -1.926,-8.83 -4.885,-11.883 -3.053,-3.099 -7.233,-4.978 -11.883,-4.978 -4.603,0 -8.83,1.879 -11.835,4.978 -2.959,3.053 -4.885,7.233 -4.885,11.883 0,4.648 1.926,8.83 4.885,11.883" />
      </g>
      <g
         transform="matrix(1.25,0,0,-1.25,159.85147,723.78694)"
         id="g3168">
        <path
           inkscape:connector-curvature="0"
           id="path3170"
           style="fill:#6c4572;fill-opacity:1;fill-rule:nonzero;stroke:none"
           d="M 0,0 8.173,0 4.133,11.6 0,0 z m 10.004,-4.463 -11.788,0 c -1.268,-3.006 -2.913,-6.951 -3.946,-9.676 l -5.119,0 13.198,33.301 3.475,0 13.197,-33.301 -5.071,0 -3.946,9.676 z" />
      </g>
      <g
         transform="matrix(1.25,0,0,-1.25,196.49934,735.53006)"
         id="g3172">
        <path
           inkscape:connector-curvature="0"
           id="path3174"
           style="fill:#6c4572;fill-opacity:1;fill-rule:nonzero;stroke:none"
           d="M 0,0 C 7.609,0 11.46,5.824 11.46,11.648 11.46,17.473 7.609,23.344 0,23.344 l -7.045,0 L -7.045,0 0,0 z m 0,28.086 c 10.755,0 16.157,-8.217 16.157,-16.438 C 16.157,3.428 10.755,-4.744 0,-4.744 l -11.789,0 0,32.83 11.789,0 z" />
      </g>
      <g
         transform="matrix(1.25,0,0,-1.25,225.02597,706.29182)"
         id="g3176">
        <path
           inkscape:connector-curvature="0"
           id="path3178"
           style="fill:#6c4572;fill-opacity:1;fill-rule:nonzero;stroke:none"
           d="m 0,0 c 2.865,2.959 6.904,4.885 11.366,4.885 7.515,0 13.432,-4.697 15.312,-12.117 l -4.698,0 c -1.737,4.929 -5.776,7.42 -10.614,7.42 -3.146,0 -6.012,-1.364 -8.078,-3.524 -2.066,-2.16 -3.382,-5.072 -3.382,-8.453 0,-3.287 1.316,-6.199 3.382,-8.361 2.066,-2.161 4.932,-3.522 8.078,-3.522 4.979,0 9.206,2.865 10.897,7.844 l 4.65,0 c -1.879,-7.467 -7.892,-12.541 -15.547,-12.541 -4.462,0 -8.501,1.879 -11.366,4.885 -2.818,3.005 -4.697,7.138 -4.697,11.695 0,4.65 1.879,8.783 4.697,11.789" />
      </g>
      <g
         transform="matrix(1.25,0,0,-1.25,271.69347,723.78694)"
         id="g3180">
        <path
           inkscape:connector-curvature="0"
           id="path3182"
           style="fill:#6c4572;fill-opacity:1;fill-rule:nonzero;stroke:none"
           d="M 0,0 8.172,0 4.133,11.6 0,0 z m 10.004,-4.463 -11.789,0 c -1.268,-3.006 -2.912,-6.951 -3.945,-9.676 l -5.12,0 13.199,33.301 3.475,0 13.197,-33.301 -5.072,0 -3.945,9.676 z" />
      </g>
      <g
         transform="matrix(1.25,0,0,-1.25,317.95197,710.98906)"
         id="g3184">
        <path
           inkscape:connector-curvature="0"
           id="path3186"
           style="fill:#6c4572;fill-opacity:1;fill-rule:nonzero;stroke:none"
           d="m 0,0 c -0.658,2.959 -3.852,4.227 -6.716,4.182 -2.207,-0.049 -4.651,-0.801 -5.966,-2.491 -0.657,-0.845 -0.891,-1.925 -0.797,-3.052 0.234,-3.383 3.945,-3.805 7.468,-4.133 4.508,-0.565 10.097,-1.738 11.365,-7 0.142,-0.703 0.235,-1.502 0.235,-2.16 0,-6.34 -6.294,-10.004 -12.212,-10.004 -5.072,0 -11.225,3.006 -11.835,8.879 l -0.047,0.89 4.791,0.094 0.047,-0.705 0,0.187 c 0.328,-3.052 4.039,-4.648 7.092,-4.648 3.522,0 7.374,1.973 7.374,5.354 0,0.33 -0.048,0.705 -0.142,1.127 -0.563,2.49 -3.944,2.912 -7.232,3.242 -5.12,0.515 -11.132,1.642 -11.648,8.5 l 0,-0.047 c -0.188,2.207 0.375,4.416 1.784,6.246 2.208,2.865 6.153,4.369 9.958,4.369 5.072,0 10.332,-2.631 11.177,-8.642 L 0,0 z" />
      </g>
      <g
         transform="matrix(1.25,0,0,-1.25,335.32634,741.63606)"
         id="g3188">
        <path
           inkscape:connector-curvature="0"
           id="path3190"
           style="fill:#6c4572;fill-opacity:1;fill-rule:nonzero;stroke:none"
           d="m 0,0 0,28.229 -9.957,0 0,4.789 24.611,0 0,-4.789 -9.91,0 L 4.744,0 0,0 z" />
      </g>
    </g>
    <path
       d="m 683.42947,977.04627 -205.30374,0 0,-289.06249 205.30374,0 0,289.06249 z"
       style="fill:#292929;fill-opacity:1;fill-rule:nonzero;stroke:none"
       id="path3252"
       inkscape:connector-curvature="0" />
    <g
       id="g3050"
       transform="matrix(1.6043007,0,0,1.6043007,256.87234,595.95785)"
       style="fill:#3fb244;fill-opacity:1">
      <path
         d="m 0,0 c 0,-16.129 -13.083,-29.206 -29.214,-29.206 -16.134,0 -29.213,13.077 -29.213,29.206 0,16.137 13.079,29.214 29.213,29.214 C -13.083,29.214 0,16.137 0,0"
         style="fill:#3fb244;fill-opacity:1;fill-rule:nonzero;stroke:none"
         id="path3052"
         inkscape:connector-curvature="0" />
    </g>
    <path
       style="fill:none;stroke:#f8c224;stroke-width:3;stroke-miterlimit:4;stroke-opacity:1;stroke-dasharray:6, 3;stroke-dashoffset:0"
       d="M 347.35467,597.34792 C 348.10533,651.40284 313.36175,703.5341 263.39739,724.01004 214.31298,745.3879 153.33895,734.32652 115.04737,696.85437 76.245227,660.80065 62.087537,601.40216 80.197657,551.66648 97.710247,500.1142 148.35225,462.10445 202.81597,460.06201 c 52.94511,-3.42215 105.86602,27.26623 129.50013,74.70485 9.90373,19.27207 15.07155,40.91805 15.03857,62.58106 z"
       id="path5877"
       inkscape:connector-curvature="0" />
    <g
       id="g3078"
       transform="matrix(0.94454266,0,0,-0.94471574,358.18273,593.53633)"
       style="fill:#459f9c;fill-opacity:0.99077555">
      <path
         d="m 0,0 c 0,-7.534 -6.111,-13.642 -13.641,-13.642 -7.538,0 -13.649,6.108 -13.649,13.642 0,7.534 6.111,13.643 13.649,13.643 C -6.111,13.643 0,7.534 0,0"
         style="fill:#459f9c;fill-opacity:0.99077555;fill-rule:nonzero;stroke:none"
         id="path3080"
         inkscape:connector-curvature="0" />
    </g>
    <g
       id="g3066"
       transform="matrix(0.91617448,0,0,-0.9160117,306.24417,704.98192)"
       style="fill:#d4343c;fill-opacity:1">
      <path
         d="m 0,0 c 0,-7.768 -6.294,-14.069 -14.064,-14.069 -7.773,0 -14.071,6.301 -14.071,14.069 0,7.771 6.298,14.071 14.071,14.071 C -6.294,14.071 0,7.771 0,0"
         style="fill:#d4343c;fill-opacity:1;fill-rule:nonzero;stroke:none"
         id="path3068"
         inkscape:connector-curvature="0" />
    </g>
    <g
       id="g3114"
       transform="matrix(1.2446094,0,0,-1.2446957,162.71104,734.80452)"
       style="fill:#885979;fill-opacity:1">
      <path
         d="m 0,0 c 3.398,-4.601 9.882,-5.573 14.481,-2.176 4.6,3.398 5.577,9.881 2.178,14.481 C 13.263,16.903 6.778,17.878 2.178,14.479 -2.421,11.081 -3.396,4.597 0,0"
         style="fill:#885979;fill-opacity:1;fill-rule:nonzero;stroke:none"
         id="path3116"
         inkscape:connector-curvature="0" />
    </g>
    <g
       id="g3110"
       transform="matrix(1.3848308,0,0,-1.3848379,57.627167,608.11724)"
       style="fill:#f28122;fill-opacity:1">
      <path
         d="m 0,0 c 4.738,-6.415 13.781,-7.778 20.198,-3.037 6.417,4.74 7.77,13.783 3.032,20.198 C 18.49,23.578 9.455,24.931 3.038,20.192 -3.378,15.452 -4.741,6.417 0,0"
         style="fill:#f28122;fill-opacity:1;fill-rule:nonzero;stroke:none"
         id="path3112"
         inkscape:connector-curvature="0" />
    </g>
    <g
       id="g3070"
       transform="matrix(1.0498765,0,0,-1.0499621,180.5909,465.82779)"
       style="fill:#885979;fill-opacity:0.98604641">
      <path
         d="m 0,0 c 0,-6.78 -5.496,-12.274 -12.274,-12.274 -6.783,0 -12.278,5.494 -12.278,12.274 0,6.779 5.495,12.276 12.278,12.276 C -5.496,12.276 0,6.779 0,0"
         style="fill:#885979;fill-opacity:0.98604641;fill-rule:nonzero;stroke:none"
         id="path3072"
         inkscape:connector-curvature="0" />
    </g>
    <g
       id="g3106"
       transform="matrix(1.881505,0,0,-1.8817172,101.35122,505.79288)"
       style="fill:#459f9c;fill-opacity:0.99845647">
      <path
         d="M 0,0 C 3.487,-4.721 10.143,-5.719 14.868,-2.229 19.589,1.26 20.588,7.911 17.1,12.632 13.614,17.351 6.963,18.354 2.241,14.865 -2.485,11.375 -3.487,4.719 0,0"
         style="fill:#459f9c;fill-opacity:0.99845647;fill-rule:nonzero;stroke:none"
         id="path3108"
         inkscape:connector-curvature="0" />
    </g>
    <g
       id="g3074"
       transform="matrix(1.0499621,0,0,-1.0500049,305.47985,486.66368)"
       style="fill:#f28122;fill-opacity:1">
      <path
         d="m 0,0 c 0,-6.78 -5.492,-12.276 -12.269,-12.276 -6.785,0 -12.281,5.496 -12.281,12.276 0,6.776 5.496,12.273 12.281,12.273 C -5.492,12.273 0,6.776 0,0"
         style="fill:#f28122;fill-opacity:1;fill-rule:nonzero;stroke:none"
         id="path3076"
         inkscape:connector-curvature="0" />
    </g>
    <g
       id="g3054"
       transform="matrix(1.8384043,0,0,-1.8392495,251.3103,462.69739)"
       style="fill:#d4343c;fill-opacity:1">
      <path
         d="m 0,0 c 0,-6.007 -4.872,-10.875 -10.884,-10.875 -6.008,0 -10.874,4.868 -10.874,10.875 0,6.004 4.866,10.873 10.874,10.873 C -4.872,10.873 0,6.004 0,0"
         style="fill:#d4343c;fill-opacity:1;fill-rule:nonzero;stroke:none"
         id="path3056"
         inkscape:connector-curvature="0" />
    </g>
    <g
       id="g3122"
       transform="matrix(1.0499115,0,0,-1.0499238,73.476117,550.03455)"
       style="fill:#f8c224;fill-opacity:1">
      <path
         d="m 0,0 c 4.028,-5.454 11.712,-6.611 17.163,-2.584 5.457,4.03 6.611,11.717 2.583,17.17 C 15.72,20.037 8.033,21.192 2.576,17.161 -2.874,13.135 -4.027,5.45 0,0"
         style="fill:#f8c224;fill-opacity:1;fill-rule:nonzero;stroke:none"
         id="path3124"
         inkscape:connector-curvature="0" />
    </g>
    <g
       id="g3126"
       transform="matrix(0.96510611,-0.25861202,-0.25859941,-0.96515316,77.541117,669.16616)"
       style="fill:#d4343c;fill-opacity:1">
      <path
         d="M 0,0 C 4.232,-5.73 12.311,-6.942 18.037,-2.712 23.77,1.521 24.985,9.6 20.752,15.328 16.52,21.056 8.442,22.271 2.709,18.036 -3.017,13.807 -4.232,5.728 0,0"
         style="fill:#d4343c;fill-opacity:1;fill-rule:nonzero;stroke:none"
         id="path3128"
         inkscape:connector-curvature="0" />
    </g>
    <g
       id="g3058"
       transform="matrix(1.9054878,0,0,-1.9055786,353.48195,533.04506)"
       style="fill:#f8c224;fill-opacity:1">
      <path
         d="m 0,0 c 0,-5.796 -4.698,-10.498 -10.497,-10.498 -5.798,0 -10.495,4.702 -10.495,10.498 0,5.798 4.697,10.493 10.495,10.493 C -4.698,10.493 0,5.798 0,0"
         style="fill:#f8c224;fill-opacity:1;fill-rule:nonzero;stroke:none"
         id="path3060"
         inkscape:connector-curvature="0" />
    </g>
    <g
       id="g3062"
       transform="matrix(1.6289298,0,0,-1.6293279,358.33803,654.25593)"
       style="fill:#885979;fill-opacity:0.99865639">
      <path
         d="m 0,0 c 0,-6.782 -5.498,-12.276 -12.277,-12.276 -6.781,0 -12.279,5.494 -12.279,12.276 0,6.776 5.498,12.274 12.279,12.274 C -5.498,12.274 0,6.776 0,0"
         style="fill:#885979;fill-opacity:0.99865639;fill-rule:nonzero;stroke:none"
         id="path3064"
         inkscape:connector-curvature="0" />
    </g>
    <g
       id="g3118"
       transform="matrix(1.5121601,0,0,1.5120672,206.19928,716.17314)"
       style="fill:#459f9c;fill-opacity:1">
      <path
         d="M 9.7859277,1.6863399 C 14.125469,-4.1884171 22.402704,-5.4359814 28.279615,-1.0953624 34.156527,3.2452566 35.398704,11.527877 31.06024,17.402634 26.719621,23.277391 18.438078,24.522801 12.561166,20.180027 6.686409,15.841563 5.446386,7.5610968 9.7859277,1.6863399"
         style="fill:#459f9c;fill-opacity:1;fill-rule:nonzero;stroke:none"
         id="path3120"
         inkscape:connector-curvature="0" />
    </g>
    <g
       style="fill:#f6c224;fill-opacity:1"
       transform="matrix(1.931381,0,0,-1.931515,105.77367,713.91341)"
       id="g6678">
      <path
         inkscape:connector-curvature="0"
         id="path6680"
         style="fill:#f6c224;fill-opacity:1;fill-rule:nonzero;stroke:none"
         d="m 0,0 c 3.398,-4.601 9.882,-5.573 14.481,-2.176 4.6,3.398 5.577,9.881 2.178,14.481 C 13.263,16.903 6.778,17.878 2.178,14.479 -2.421,11.081 -3.396,4.597 0,0" />
    </g>
    <g
       transform="translate(-20.294373,143.77219)"
       id="g5741">
      <g
         id="g5617"
         transform="matrix(0.48692304,0,0,0.48692304,502.44032,128.69653)">
        <g
           transform="matrix(1.25,0,0,-1.25,63.308469,690.22731)"
           id="g5619">
          <path
             inkscape:connector-curvature="0"
             id="path5621"
             style="fill:#6c4572;fill-opacity:1;fill-rule:nonzero;stroke:none"
             d="m 0,0 -7.585,0 0,52.574 6.158,0 17.35,-25.537 17.348,25.537 6.009,0 0,-52.574 -7.51,0 0,37.027 -13.745,-20.429 -4.281,0 L 0,37.027 0,0 z" />
        </g>
        <g
           transform="matrix(1.25,0,0,-1.25,132.11522,661.96807)"
           id="g5623">
          <path
             inkscape:connector-curvature="0"
             id="path5625"
             style="fill:#6c4572;fill-opacity:1;fill-rule:nonzero;stroke:none"
             d="M 0,0 13.068,0 6.609,18.551 0,0 z m 15.998,-7.135 -18.852,0 c -2.027,-4.806 -4.656,-11.117 -6.309,-15.472 l -8.186,0 21.104,53.25 5.558,0 21.104,-53.25 -8.111,0 -6.308,15.472 z" />
        </g>
        <g
           transform="matrix(1.25,0,0,-1.25,177.73597,680.74494)"
           id="g5627">
          <path
             inkscape:connector-curvature="0"
             id="path5629"
             style="fill:#6c4572;fill-opacity:1;fill-rule:nonzero;stroke:none"
             d="m 0,0 24.709,0 0,-7.586 -32.294,0 0,52.498 7.585,0 L 0,0 z" />
        </g>
        <g
           transform="matrix(1.25,0,0,-1.25,216.78384,681.02569)"
           id="g5631">
          <path
             inkscape:connector-curvature="0"
             id="path5633"
             style="fill:#6c4572;fill-opacity:1;fill-rule:nonzero;stroke:none"
             d="m 0,0 16.223,0 c 5.107,0 7.66,4.279 7.66,8.41 0,4.131 -2.553,8.338 -7.66,8.338 L 0,16.748 0,0 z m 0,24.258 14.195,0 c 8.262,0 8.411,13.67 0.15,13.67 L 0,37.928 0,24.258 z m 14.345,20.879 c 6.609,0 10.815,-3.756 12.768,-8.637 C 29.215,31.316 28.54,25.311 23.282,21.555 29.291,19 31.469,13.443 31.469,8.486 31.469,0.6 26.287,-7.361 16.223,-7.361 l -23.734,0 0,52.498 21.856,0 z" />
        </g>
        <g
           transform="matrix(1.25,0,0,-1.25,264.84409,680.74494)"
           id="g5635">
          <path
             inkscape:connector-curvature="0"
             id="path5637"
             style="fill:#6c4572;fill-opacity:1;fill-rule:nonzero;stroke:none"
             d="m 0,0 24.409,0 0,-7.586 -32.07,0 0,52.498 31.995,0 0,-7.586 -24.334,0 0,-14.795 23.808,0 0,-7.66 L 0,14.871 0,0 z" />
        </g>
        <g
           transform="matrix(1.25,0,0,-1.25,301.16859,633.99206)"
           id="g5639">
          <path
             inkscape:connector-curvature="0"
             id="path5641"
             style="fill:#6c4572;fill-opacity:1;fill-rule:nonzero;stroke:none"
             d="m 0,0 c 4.581,4.73 11.041,7.811 18.175,7.811 12.016,0 21.48,-7.51 24.484,-19.377 l -7.51,0 C 32.37,-3.682 25.911,0.301 18.175,0.301 c -5.032,0 -9.613,-2.178 -12.918,-5.633 -3.305,-3.455 -5.407,-8.111 -5.407,-13.52 0,-5.257 2.102,-9.914 5.407,-13.369 3.305,-3.455 7.886,-5.633 12.918,-5.633 7.961,0 14.721,4.583 17.424,12.543 l 7.436,0 c -3.005,-11.941 -12.618,-20.054 -24.86,-20.054 -7.134,0 -13.594,3.006 -18.175,7.812 -4.507,4.807 -7.511,11.416 -7.511,18.701 0,7.436 3.004,14.045 7.511,18.852" />
        </g>
        <g
           transform="matrix(1.25,0,0,-1.25,60.066344,735.70594)"
           id="g5643">
          <path
             inkscape:connector-curvature="0"
             id="path5645"
             style="fill:#6c4572;fill-opacity:1;fill-rule:nonzero;stroke:none"
             d="m 0,0 10.146,0 c 3.192,0 4.789,2.678 4.789,5.262 0,2.58 -1.597,5.211 -4.789,5.211 L 0,10.473 0,0 z m 0,15.172 8.877,0 c 5.166,0 5.261,8.547 0.094,8.547 l -8.971,0 0,-8.547 z m 8.971,13.055 c 4.133,0 6.763,-2.348 7.985,-5.401 1.315,-3.242 0.892,-6.998 -2.396,-9.347 3.757,-1.596 5.119,-5.073 5.119,-8.172 0,-4.932 -3.241,-9.911 -9.533,-9.911 l -14.843,0 0,32.831 13.668,0 z" />
        </g>
        <g
           transform="matrix(1.25,0,0,-1.25,89.425969,720.61794)"
           id="g5647">
          <path
             inkscape:connector-curvature="0"
             id="path5649"
             style="fill:#6c4572;fill-opacity:1;fill-rule:nonzero;stroke:none"
             d="m 0,0 7.568,0 c 3.992,0 5.965,2.865 5.965,5.73 0,2.819 -1.973,5.684 -5.965,5.684 l -7.28,0 0,-28.088 -4.697,0 0,32.877 11.977,0 c 7.14,0 10.709,-5.258 10.709,-10.473 0,-4.65 -2.866,-9.064 -8.502,-10.05 l 10.38,-12.354 -6.153,0 L 2.026,-2.254 0,0 z" />
        </g>
        <g
           transform="matrix(1.25,0,0,-1.25,142.72922,710.28594)"
           id="g5651">
          <path
             inkscape:connector-curvature="0"
             id="path5653"
             style="fill:#6c4572;fill-opacity:1;fill-rule:nonzero;stroke:none"
             d="m 0,0 c -2.207,2.209 -5.26,3.57 -8.501,3.57 -3.241,0 -6.247,-1.361 -8.407,-3.57 -2.161,-2.158 -3.523,-5.164 -3.523,-8.5 0,-3.334 1.362,-6.34 3.523,-8.502 2.16,-2.207 5.166,-3.568 8.407,-3.568 3.241,0 6.294,1.361 8.501,3.568 2.114,2.162 3.477,5.121 3.477,8.502 0,3.381 -1.363,6.342 -3.477,8.5 m -20.336,3.383 c 3.005,3.055 7.232,4.978 11.835,4.978 4.65,0 8.83,-1.923 11.883,-4.978 C 6.341,0.33 8.267,-3.852 8.267,-8.5 c 0,-4.65 -1.926,-8.83 -4.885,-11.883 -3.053,-3.099 -7.233,-4.978 -11.883,-4.978 -4.603,0 -8.83,1.879 -11.835,4.978 -2.959,3.053 -4.885,7.233 -4.885,11.883 0,4.648 1.926,8.83 4.885,11.883" />
        </g>
        <g
           transform="matrix(1.25,0,0,-1.25,159.85147,723.78694)"
           id="g5655">
          <path
             inkscape:connector-curvature="0"
             id="path5657"
             style="fill:#6c4572;fill-opacity:1;fill-rule:nonzero;stroke:none"
             d="M 0,0 8.173,0 4.133,11.6 0,0 z m 10.004,-4.463 -11.788,0 c -1.268,-3.006 -2.913,-6.951 -3.946,-9.676 l -5.119,0 13.198,33.301 3.475,0 13.197,-33.301 -5.071,0 -3.946,9.676 z" />
        </g>
        <g
           transform="matrix(1.25,0,0,-1.25,196.49934,735.53006)"
           id="g5659">
          <path
             inkscape:connector-curvature="0"
             id="path5661"
             style="fill:#6c4572;fill-opacity:1;fill-rule:nonzero;stroke:none"
             d="M 0,0 C 7.609,0 11.46,5.824 11.46,11.648 11.46,17.473 7.609,23.344 0,23.344 l -7.045,0 L -7.045,0 0,0 z m 0,28.086 c 10.755,0 16.157,-8.217 16.157,-16.438 C 16.157,3.428 10.755,-4.744 0,-4.744 l -11.789,0 0,32.83 11.789,0 z" />
        </g>
        <g
           transform="matrix(1.25,0,0,-1.25,225.02597,706.29182)"
           id="g5663">
          <path
             inkscape:connector-curvature="0"
             id="path5665"
             style="fill:#6c4572;fill-opacity:1;fill-rule:nonzero;stroke:none"
             d="m 0,0 c 2.865,2.959 6.904,4.885 11.366,4.885 7.515,0 13.432,-4.697 15.312,-12.117 l -4.698,0 c -1.737,4.929 -5.776,7.42 -10.614,7.42 -3.146,0 -6.012,-1.364 -8.078,-3.524 -2.066,-2.16 -3.382,-5.072 -3.382,-8.453 0,-3.287 1.316,-6.199 3.382,-8.361 2.066,-2.161 4.932,-3.522 8.078,-3.522 4.979,0 9.206,2.865 10.897,7.844 l 4.65,0 c -1.879,-7.467 -7.892,-12.541 -15.547,-12.541 -4.462,0 -8.501,1.879 -11.366,4.885 -2.818,3.005 -4.697,7.138 -4.697,11.695 0,4.65 1.879,8.783 4.697,11.789" />
        </g>
        <g
           transform="matrix(1.25,0,0,-1.25,271.69347,723.78694)"
           id="g5667">
          <path
             inkscape:connector-curvature="0"
             id="path5669"
             style="fill:#6c4572;fill-opacity:1;fill-rule:nonzero;stroke:none"
             d="M 0,0 8.172,0 4.133,11.6 0,0 z m 10.004,-4.463 -11.789,0 c -1.268,-3.006 -2.912,-6.951 -3.945,-9.676 l -5.12,0 13.199,33.301 3.475,0 13.197,-33.301 -5.072,0 -3.945,9.676 z" />
        </g>
        <g
           transform="matrix(1.25,0,0,-1.25,317.95197,710.98906)"
           id="g5671">
          <path
             inkscape:connector-curvature="0"
             id="path5673"
             style="fill:#6c4572;fill-opacity:1;fill-rule:nonzero;stroke:none"
             d="m 0,0 c -0.658,2.959 -3.852,4.227 -6.716,4.182 -2.207,-0.049 -4.651,-0.801 -5.966,-2.491 -0.657,-0.845 -0.891,-1.925 -0.797,-3.052 0.234,-3.383 3.945,-3.805 7.468,-4.133 4.508,-0.565 10.097,-1.738 11.365,-7 0.142,-0.703 0.235,-1.502 0.235,-2.16 0,-6.34 -6.294,-10.004 -12.212,-10.004 -5.072,0 -11.225,3.006 -11.835,8.879 l -0.047,0.89 4.791,0.094 0.047,-0.705 0,0.187 c 0.328,-3.052 4.039,-4.648 7.092,-4.648 3.522,0 7.374,1.973 7.374,5.354 0,0.33 -0.048,0.705 -0.142,1.127 -0.563,2.49 -3.944,2.912 -7.232,3.242 -5.12,0.515 -11.132,1.642 -11.648,8.5 l 0,-0.047 c -0.188,2.207 0.375,4.416 1.784,6.246 2.208,2.865 6.153,4.369 9.958,4.369 5.072,0 10.332,-2.631 11.177,-8.642 L 0,0 z" />
        </g>
        <g
           transform="matrix(1.25,0,0,-1.25,335.32634,741.63606)"
           id="g5675">
          <path
             inkscape:connector-curvature="0"
             id="path5677"
             style="fill:#6c4572;fill-opacity:1;fill-rule:nonzero;stroke:none"
             d="m 0,0 0,28.229 -9.957,0 0,4.789 24.611,0 0,-4.789 -9.91,0 L 4.744,0 0,0 z" />
        </g>
      </g>
      <g
         id="g5679"
         transform="matrix(0.78117098,0,0,0.78117098,625.78736,344.98076)"
         style="fill:#3fb244;fill-opacity:1">
        <path
           d="m 0,0 c 0,-16.129 -13.083,-29.206 -29.214,-29.206 -16.134,0 -29.213,13.077 -29.213,29.206 0,16.137 13.079,29.214 29.213,29.214 C -13.083,29.214 0,16.137 0,0"
           style="fill:#3fb244;fill-opacity:1;fill-rule:nonzero;stroke:none"
           id="path5681"
           inkscape:connector-curvature="0" />
      </g>
      <path
         style="fill:none;stroke:#f8c224;stroke-width:1.46076918;stroke-miterlimit:4;stroke-opacity:1;stroke-dasharray:2.92153825, 1.46076913;stroke-dashoffset:0"
         d="m 669.84529,345.65762 c 0.36551,26.32058 -16.55194,51.7045 -40.88074,61.67471 -23.90033,10.40937 -53.58999,5.02333 -72.23504,-13.22272 -18.89365,-17.5554 -25.78736,-46.47789 -16.96913,-70.69534 8.52729,-25.10199 33.18604,-43.60981 59.70568,-44.60432 25.7802,-1.66632 51.54861,13.27655 63.0566,36.37551 4.82236,9.38401 7.33869,19.92394 7.32263,30.47216 z"
         id="path5683"
         inkscape:connector-curvature="0" />
      <g
         id="g5685"
         transform="matrix(0.45991959,0,0,-0.46000386,675.11772,343.80167)"
         style="fill:#459f9c;fill-opacity:0.99077555">
        <path
           d="m 0,0 c 0,-7.534 -6.111,-13.642 -13.641,-13.642 -7.538,0 -13.649,6.108 -13.649,13.642 0,7.534 6.111,13.643 13.649,13.643 C -6.111,13.643 0,7.534 0,0"
           style="fill:#459f9c;fill-opacity:0.99077555;fill-rule:nonzero;stroke:none"
           id="path5687"
           inkscape:connector-curvature="0" />
      </g>
      <g
         id="g5689"
         transform="matrix(0.44610646,0,0,-0.4460272,649.82764,398.0671)"
         style="fill:#d4343c;fill-opacity:1">
        <path
           d="m 0,0 c 0,-7.768 -6.294,-14.069 -14.064,-14.069 -7.773,0 -14.071,6.301 -14.071,14.069 0,7.771 6.298,14.071 14.071,14.071 C -6.294,14.071 0,7.771 0,0"
           style="fill:#d4343c;fill-opacity:1;fill-rule:nonzero;stroke:none"
           id="path5691"
           inkscape:connector-curvature="0" />
      </g>
      <g
         id="g5693"
         transform="matrix(0.606029,0,0,-0.60607102,579.93805,412.58841)"
         style="fill:#885979;fill-opacity:1">
        <path
           d="m 0,0 c 3.398,-4.601 9.882,-5.573 14.481,-2.176 4.6,3.398 5.577,9.881 2.178,14.481 C 13.263,16.903 6.778,17.878 2.178,14.479 -2.421,11.081 -3.396,4.597 0,0"
           style="fill:#885979;fill-opacity:1;fill-rule:nonzero;stroke:none"
           id="path5695"
           inkscape:connector-curvature="0" />
      </g>
      <g
         id="g5697"
         transform="matrix(0.67430603,0,0,-0.67430948,528.7703,350.90145)"
         style="fill:#f28122;fill-opacity:1">
        <path
           d="m 0,0 c 4.738,-6.415 13.781,-7.778 20.198,-3.037 6.417,4.74 7.77,13.783 3.032,20.198 C 18.49,23.578 9.455,24.931 3.038,20.192 -3.378,15.452 -4.741,6.417 0,0"
           style="fill:#f28122;fill-opacity:1;fill-rule:nonzero;stroke:none"
           id="path5699"
           inkscape:connector-curvature="0" />
      </g>
      <g
         id="g5701"
         transform="matrix(0.51120906,0,0,-0.51125074,588.64417,281.61744)"
         style="fill:#885979;fill-opacity:0.98604641">
        <path
           d="m 0,0 c 0,-6.78 -5.496,-12.274 -12.274,-12.274 -6.783,0 -12.278,5.494 -12.278,12.274 0,6.779 5.495,12.276 12.278,12.276 C -5.496,12.276 0,6.779 0,0"
           style="fill:#885979;fill-opacity:0.98604641;fill-rule:nonzero;stroke:none"
           id="path5703"
           inkscape:connector-curvature="0" />
      </g>
      <g
         id="g5705"
         transform="matrix(0.91614814,0,0,-0.91625146,550.06054,301.07736)"
         style="fill:#459f9c;fill-opacity:0.99845647">
        <path
           d="M 0,0 C 3.487,-4.721 10.143,-5.719 14.868,-2.229 19.589,1.26 20.588,7.911 17.1,12.632 13.614,17.351 6.963,18.354 2.241,14.865 -2.485,11.375 -3.487,4.719 0,0"
           style="fill:#459f9c;fill-opacity:0.99845647;fill-rule:nonzero;stroke:none"
           id="path5707"
           inkscape:connector-curvature="0" />
      </g>
      <g
         id="g5709"
         transform="matrix(0.51125074,0,0,-0.51127158,649.45547,291.76292)"
         style="fill:#f28122;fill-opacity:1">
        <path
           d="m 0,0 c 0,-6.78 -5.492,-12.276 -12.269,-12.276 -6.785,0 -12.281,5.496 -12.281,12.276 0,6.776 5.496,12.273 12.281,12.273 C -5.492,12.273 0,6.776 0,0"
           style="fill:#f28122;fill-opacity:1;fill-rule:nonzero;stroke:none"
           id="path5711"
           inkscape:connector-curvature="0" />
      </g>
      <g
         id="g5713"
         transform="matrix(0.89516141,0,0,-0.89557296,623.07907,280.09318)"
         style="fill:#d4343c;fill-opacity:1">
        <path
           d="m 0,0 c 0,-6.007 -4.872,-10.875 -10.884,-10.875 -6.008,0 -10.874,4.868 -10.874,10.875 0,6.004 4.866,10.873 10.874,10.873 C -4.872,10.873 0,6.004 0,0"
           style="fill:#d4343c;fill-opacity:1;fill-rule:nonzero;stroke:none"
           id="path5715"
           inkscape:connector-curvature="0" />
      </g>
      <g
         id="g5717"
         transform="matrix(0.5112261,0,0,-0.51123209,536.48752,322.61965)"
         style="fill:#f8c224;fill-opacity:1">
        <path
           d="m 0,0 c 4.028,-5.454 11.712,-6.611 17.163,-2.584 5.457,4.03 6.611,11.717 2.583,17.17 C 15.72,20.037 8.033,21.192 2.576,17.161 -2.874,13.135 -4.027,5.45 0,0"
           style="fill:#f8c224;fill-opacity:1;fill-rule:nonzero;stroke:none"
           id="path5719"
           inkscape:connector-curvature="0" />
      </g>
      <g
         id="g5721"
         transform="matrix(0.4699324,-0.12592415,-0.12591801,-0.46995531,538.46686,380.62757)"
         style="fill:#d4343c;fill-opacity:1">
        <path
           d="M 0,0 C 4.232,-5.73 12.311,-6.942 18.037,-2.712 23.77,1.521 24.985,9.6 20.752,15.328 16.52,21.056 8.442,22.271 2.709,18.036 -3.017,13.807 -4.232,5.728 0,0"
           style="fill:#d4343c;fill-opacity:1;fill-rule:nonzero;stroke:none"
           id="path5723"
           inkscape:connector-curvature="0" />
      </g>
      <g
         id="g5725"
         transform="matrix(0.92782592,0,0,-0.92787013,672.8288,314.34707)"
         style="fill:#f8c224;fill-opacity:1">
        <path
           d="m 0,0 c 0,-5.796 -4.698,-10.498 -10.497,-10.498 -5.798,0 -10.495,4.702 -10.495,10.498 0,5.798 4.697,10.493 10.495,10.493 C -4.698,10.493 0,5.798 0,0"
           style="fill:#f8c224;fill-opacity:1;fill-rule:nonzero;stroke:none"
           id="path5727"
           inkscape:connector-curvature="0" />
      </g>
      <g
         id="g5729"
         transform="matrix(0.79316345,0,0,-0.7933573,675.19334,373.36744)"
         style="fill:#885979;fill-opacity:0.99865639">
        <path
           d="m 0,0 c 0,-6.782 -5.498,-12.276 -12.277,-12.276 -6.781,0 -12.279,5.494 -12.279,12.276 0,6.776 5.498,12.274 12.279,12.274 C -5.498,12.274 0,6.776 0,0"
           style="fill:#885979;fill-opacity:0.99865639;fill-rule:nonzero;stroke:none"
           id="path5731"
           inkscape:connector-curvature="0" />
      </g>
      <g
         id="g5733"
         transform="matrix(0.7363056,0,0,0.73626036,601.11348,403.51636)"
         style="fill:#459f9c;fill-opacity:1">
        <path
           d="M 9.7859277,1.6863399 C 14.125469,-4.1884171 22.402704,-5.4359814 28.279615,-1.0953624 34.156527,3.2452566 35.398704,11.527877 31.06024,17.402634 26.719621,23.277391 18.438078,24.522801 12.561166,20.180027 6.686409,15.841563 5.446386,7.5610968 9.7859277,1.6863399"
           style="fill:#459f9c;fill-opacity:1;fill-rule:nonzero;stroke:none"
           id="path5735"
           inkscape:connector-curvature="0" />
      </g>
      <g
         style="fill:#f6c224;fill-opacity:1"
         transform="matrix(0.94043391,0,0,-0.94049916,552.21393,402.41605)"
         id="g5737">
        <path
           inkscape:connector-curvature="0"
           id="path5739"
           style="fill:#f6c224;fill-opacity:1;fill-rule:nonzero;stroke:none"
           d="m 0,0 c 3.398,-4.601 9.882,-5.573 14.481,-2.176 4.6,3.398 5.577,9.881 2.178,14.481 C 13.263,16.903 6.778,17.878 2.178,14.479 -2.421,11.081 -3.396,4.597 0,0" />
      </g>
    </g>
    <g
       id="g5807"
       transform="matrix(0.48692304,0,0,0.48692304,482.14595,581.04016)"
       style="fill:#ffffff;fill-opacity:1">
      <g
         transform="matrix(1.25,0,0,-1.25,63.308469,690.22731)"
         id="g5809"
         style="fill:#ffffff;fill-opacity:1">
        <path
           inkscape:connector-curvature="0"
           id="path5811"
           style="fill:#ffffff;fill-opacity:1;fill-rule:nonzero;stroke:none"
           d="m 0,0 -7.585,0 0,52.574 6.158,0 17.35,-25.537 17.348,25.537 6.009,0 0,-52.574 -7.51,0 0,37.027 -13.745,-20.429 -4.281,0 L 0,37.027 0,0 z" />
      </g>
      <g
         transform="matrix(1.25,0,0,-1.25,132.11522,661.96807)"
         id="g5813"
         style="fill:#ffffff;fill-opacity:1">
        <path
           inkscape:connector-curvature="0"
           id="path5815"
           style="fill:#ffffff;fill-opacity:1;fill-rule:nonzero;stroke:none"
           d="M 0,0 13.068,0 6.609,18.551 0,0 z m 15.998,-7.135 -18.852,0 c -2.027,-4.806 -4.656,-11.117 -6.309,-15.472 l -8.186,0 21.104,53.25 5.558,0 21.104,-53.25 -8.111,0 -6.308,15.472 z" />
      </g>
      <g
         transform="matrix(1.25,0,0,-1.25,177.73597,680.74494)"
         id="g5817"
         style="fill:#ffffff;fill-opacity:1">
        <path
           inkscape:connector-curvature="0"
           id="path5819"
           style="fill:#ffffff;fill-opacity:1;fill-rule:nonzero;stroke:none"
           d="m 0,0 24.709,0 0,-7.586 -32.294,0 0,52.498 7.585,0 L 0,0 z" />
      </g>
      <g
         transform="matrix(1.25,0,0,-1.25,216.78384,681.02569)"
         id="g5821"
         style="fill:#ffffff;fill-opacity:1">
        <path
           inkscape:connector-curvature="0"
           id="path5823"
           style="fill:#ffffff;fill-opacity:1;fill-rule:nonzero;stroke:none"
           d="m 0,0 16.223,0 c 5.107,0 7.66,4.279 7.66,8.41 0,4.131 -2.553,8.338 -7.66,8.338 L 0,16.748 0,0 z m 0,24.258 14.195,0 c 8.262,0 8.411,13.67 0.15,13.67 L 0,37.928 0,24.258 z m 14.345,20.879 c 6.609,0 10.815,-3.756 12.768,-8.637 C 29.215,31.316 28.54,25.311 23.282,21.555 29.291,19 31.469,13.443 31.469,8.486 31.469,0.6 26.287,-7.361 16.223,-7.361 l -23.734,0 0,52.498 21.856,0 z" />
      </g>
      <g
         transform="matrix(1.25,0,0,-1.25,264.84409,680.74494)"
         id="g5825"
         style="fill:#ffffff;fill-opacity:1">
        <path
           inkscape:connector-curvature="0"
           id="path5827"
           style="fill:#ffffff;fill-opacity:1;fill-rule:nonzero;stroke:none"
           d="m 0,0 24.409,0 0,-7.586 -32.07,0 0,52.498 31.995,0 0,-7.586 -24.334,0 0,-14.795 23.808,0 0,-7.66 L 0,14.871 0,0 z" />
      </g>
      <g
         transform="matrix(1.25,0,0,-1.25,301.16859,633.99206)"
         id="g5829"
         style="fill:#ffffff;fill-opacity:1">
        <path
           inkscape:connector-curvature="0"
           id="path5831"
           style="fill:#ffffff;fill-opacity:1;fill-rule:nonzero;stroke:none"
           d="m 0,0 c 4.581,4.73 11.041,7.811 18.175,7.811 12.016,0 21.48,-7.51 24.484,-19.377 l -7.51,0 C 32.37,-3.682 25.911,0.301 18.175,0.301 c -5.032,0 -9.613,-2.178 -12.918,-5.633 -3.305,-3.455 -5.407,-8.111 -5.407,-13.52 0,-5.257 2.102,-9.914 5.407,-13.369 3.305,-3.455 7.886,-5.633 12.918,-5.633 7.961,0 14.721,4.583 17.424,12.543 l 7.436,0 c -3.005,-11.941 -12.618,-20.054 -24.86,-20.054 -7.134,0 -13.594,3.006 -18.175,7.812 -4.507,4.807 -7.511,11.416 -7.511,18.701 0,7.436 3.004,14.045 7.511,18.852" />
      </g>
      <g
         transform="matrix(1.25,0,0,-1.25,60.066344,735.70594)"
         id="g5833"
         style="fill:#ffffff;fill-opacity:1">
        <path
           inkscape:connector-curvature="0"
           id="path5835"
           style="fill:#ffffff;fill-opacity:1;fill-rule:nonzero;stroke:none"
           d="m 0,0 10.146,0 c 3.192,0 4.789,2.678 4.789,5.262 0,2.58 -1.597,5.211 -4.789,5.211 L 0,10.473 0,0 z m 0,15.172 8.877,0 c 5.166,0 5.261,8.547 0.094,8.547 l -8.971,0 0,-8.547 z m 8.971,13.055 c 4.133,0 6.763,-2.348 7.985,-5.401 1.315,-3.242 0.892,-6.998 -2.396,-9.347 3.757,-1.596 5.119,-5.073 5.119,-8.172 0,-4.932 -3.241,-9.911 -9.533,-9.911 l -14.843,0 0,32.831 13.668,0 z" />
      </g>
      <g
         transform="matrix(1.25,0,0,-1.25,89.425969,720.61794)"
         id="g5837"
         style="fill:#ffffff;fill-opacity:1">
        <path
           inkscape:connector-curvature="0"
           id="path5839"
           style="fill:#ffffff;fill-opacity:1;fill-rule:nonzero;stroke:none"
           d="m 0,0 7.568,0 c 3.992,0 5.965,2.865 5.965,5.73 0,2.819 -1.973,5.684 -5.965,5.684 l -7.28,0 0,-28.088 -4.697,0 0,32.877 11.977,0 c 7.14,0 10.709,-5.258 10.709,-10.473 0,-4.65 -2.866,-9.064 -8.502,-10.05 l 10.38,-12.354 -6.153,0 L 2.026,-2.254 0,0 z" />
      </g>
      <g
         transform="matrix(1.25,0,0,-1.25,142.72922,710.28594)"
         id="g5841"
         style="fill:#ffffff;fill-opacity:1">
        <path
           inkscape:connector-curvature="0"
           id="path5843"
           style="fill:#ffffff;fill-opacity:1;fill-rule:nonzero;stroke:none"
           d="m 0,0 c -2.207,2.209 -5.26,3.57 -8.501,3.57 -3.241,0 -6.247,-1.361 -8.407,-3.57 -2.161,-2.158 -3.523,-5.164 -3.523,-8.5 0,-3.334 1.362,-6.34 3.523,-8.502 2.16,-2.207 5.166,-3.568 8.407,-3.568 3.241,0 6.294,1.361 8.501,3.568 2.114,2.162 3.477,5.121 3.477,8.502 0,3.381 -1.363,6.342 -3.477,8.5 m -20.336,3.383 c 3.005,3.055 7.232,4.978 11.835,4.978 4.65,0 8.83,-1.923 11.883,-4.978 C 6.341,0.33 8.267,-3.852 8.267,-8.5 c 0,-4.65 -1.926,-8.83 -4.885,-11.883 -3.053,-3.099 -7.233,-4.978 -11.883,-4.978 -4.603,0 -8.83,1.879 -11.835,4.978 -2.959,3.053 -4.885,7.233 -4.885,11.883 0,4.648 1.926,8.83 4.885,11.883" />
      </g>
      <g
         transform="matrix(1.25,0,0,-1.25,159.85147,723.78694)"
         id="g5845"
         style="fill:#ffffff;fill-opacity:1">
        <path
           inkscape:connector-curvature="0"
           id="path5847"
           style="fill:#ffffff;fill-opacity:1;fill-rule:nonzero;stroke:none"
           d="M 0,0 8.173,0 4.133,11.6 0,0 z m 10.004,-4.463 -11.788,0 c -1.268,-3.006 -2.913,-6.951 -3.946,-9.676 l -5.119,0 13.198,33.301 3.475,0 13.197,-33.301 -5.071,0 -3.946,9.676 z" />
      </g>
      <g
         transform="matrix(1.25,0,0,-1.25,196.49934,735.53006)"
         id="g5849"
         style="fill:#ffffff;fill-opacity:1">
        <path
           inkscape:connector-curvature="0"
           id="path5851"
           style="fill:#ffffff;fill-opacity:1;fill-rule:nonzero;stroke:none"
           d="M 0,0 C 7.609,0 11.46,5.824 11.46,11.648 11.46,17.473 7.609,23.344 0,23.344 l -7.045,0 L -7.045,0 0,0 z m 0,28.086 c 10.755,0 16.157,-8.217 16.157,-16.438 C 16.157,3.428 10.755,-4.744 0,-4.744 l -11.789,0 0,32.83 11.789,0 z" />
      </g>
      <g
         transform="matrix(1.25,0,0,-1.25,225.02597,706.29182)"
         id="g5853"
         style="fill:#ffffff;fill-opacity:1">
        <path
           inkscape:connector-curvature="0"
           id="path5855"
           style="fill:#ffffff;fill-opacity:1;fill-rule:nonzero;stroke:none"
           d="m 0,0 c 2.865,2.959 6.904,4.885 11.366,4.885 7.515,0 13.432,-4.697 15.312,-12.117 l -4.698,0 c -1.737,4.929 -5.776,7.42 -10.614,7.42 -3.146,0 -6.012,-1.364 -8.078,-3.524 -2.066,-2.16 -3.382,-5.072 -3.382,-8.453 0,-3.287 1.316,-6.199 3.382,-8.361 2.066,-2.161 4.932,-3.522 8.078,-3.522 4.979,0 9.206,2.865 10.897,7.844 l 4.65,0 c -1.879,-7.467 -7.892,-12.541 -15.547,-12.541 -4.462,0 -8.501,1.879 -11.366,4.885 -2.818,3.005 -4.697,7.138 -4.697,11.695 0,4.65 1.879,8.783 4.697,11.789" />
      </g>
      <g
         transform="matrix(1.25,0,0,-1.25,271.69347,723.78694)"
         id="g5857"
         style="fill:#ffffff;fill-opacity:1">
        <path
           inkscape:connector-curvature="0"
           id="path5859"
           style="fill:#ffffff;fill-opacity:1;fill-rule:nonzero;stroke:none"
           d="M 0,0 8.172,0 4.133,11.6 0,0 z m 10.004,-4.463 -11.789,0 c -1.268,-3.006 -2.912,-6.951 -3.945,-9.676 l -5.12,0 13.199,33.301 3.475,0 13.197,-33.301 -5.072,0 -3.945,9.676 z" />
      </g>
      <g
         transform="matrix(1.25,0,0,-1.25,317.95197,710.98906)"
         id="g5861"
         style="fill:#ffffff;fill-opacity:1">
        <path
           inkscape:connector-curvature="0"
           id="path5863"
           style="fill:#ffffff;fill-opacity:1;fill-rule:nonzero;stroke:none"
           d="m 0,0 c -0.658,2.959 -3.852,4.227 -6.716,4.182 -2.207,-0.049 -4.651,-0.801 -5.966,-2.491 -0.657,-0.845 -0.891,-1.925 -0.797,-3.052 0.234,-3.383 3.945,-3.805 7.468,-4.133 4.508,-0.565 10.097,-1.738 11.365,-7 0.142,-0.703 0.235,-1.502 0.235,-2.16 0,-6.34 -6.294,-10.004 -12.212,-10.004 -5.072,0 -11.225,3.006 -11.835,8.879 l -0.047,0.89 4.791,0.094 0.047,-0.705 0,0.187 c 0.328,-3.052 4.039,-4.648 7.092,-4.648 3.522,0 7.374,1.973 7.374,5.354 0,0.33 -0.048,0.705 -0.142,1.127 -0.563,2.49 -3.944,2.912 -7.232,3.242 -5.12,0.515 -11.132,1.642 -11.648,8.5 l 0,-0.047 c -0.188,2.207 0.375,4.416 1.784,6.246 2.208,2.865 6.153,4.369 9.958,4.369 5.072,0 10.332,-2.631 11.177,-8.642 L 0,0 z" />
      </g>
      <g
         transform="matrix(1.25,0,0,-1.25,335.32634,741.63606)"
         id="g5865"
         style="fill:#ffffff;fill-opacity:1">
        <path
           inkscape:connector-curvature="0"
           id="path5867"
           style="fill:#ffffff;fill-opacity:1;fill-rule:nonzero;stroke:none"
           d="m 0,0 0,28.229 -9.957,0 0,4.789 24.611,0 0,-4.789 -9.91,0 L 4.744,0 0,0 z" />
      </g>
    </g>
    <g
       id="g5869"
       transform="matrix(0.78117098,0,0,0.78117098,605.49298,797.32438)"
       style="fill:#ffffff;fill-opacity:1">
      <path
         d="m 0,0 c 0,-16.129 -13.083,-29.206 -29.214,-29.206 -16.134,0 -29.213,13.077 -29.213,29.206 0,16.137 13.079,29.214 29.213,29.214 C -13.083,29.214 0,16.137 0,0"
         style="fill:#ffffff;fill-opacity:1;fill-rule:nonzero;stroke:none"
         id="path5871"
         inkscape:connector-curvature="0" />
    </g>
    <path
       style="fill:none;stroke:#ffffff;stroke-width:1.46076918;stroke-miterlimit:4;stroke-opacity:1;stroke-dasharray:2.92153825, 1.46076913;stroke-dashoffset:0"
       d="m 649.55091,798.00124 c 0.36551,26.32058 -16.55194,51.7045 -40.88074,61.67471 -23.90033,10.40937 -53.58998,5.02333 -72.23503,-13.22272 -18.89365,-17.5554 -25.78736,-46.47789 -16.96913,-70.69534 8.52729,-25.10199 33.18604,-43.60981 59.70567,-44.60432 25.7802,-1.66632 51.54861,13.27655 63.0566,36.37551 4.82236,9.38401 7.33869,19.92394 7.32263,30.47216 z"
       id="path5873"
       inkscape:connector-curvature="0" />
    <g
       id="g5875"
       transform="matrix(0.45991959,0,0,-0.46000386,654.82334,796.14529)"
       style="fill:#ffffff;fill-opacity:1">
      <path
         d="m 0,0 c 0,-7.534 -6.111,-13.642 -13.641,-13.642 -7.538,0 -13.649,6.108 -13.649,13.642 0,7.534 6.111,13.643 13.649,13.643 C -6.111,13.643 0,7.534 0,0"
         style="fill:#ffffff;fill-opacity:1;fill-rule:nonzero;stroke:none"
         id="path5878"
         inkscape:connector-curvature="0" />
    </g>
    <g
       id="g5880"
       transform="matrix(0.44610646,0,0,-0.4460272,629.53326,850.41072)"
       style="fill:#ffffff;fill-opacity:1">
      <path
         d="m 0,0 c 0,-7.768 -6.294,-14.069 -14.064,-14.069 -7.773,0 -14.071,6.301 -14.071,14.069 0,7.771 6.298,14.071 14.071,14.071 C -6.294,14.071 0,7.771 0,0"
         style="fill:#ffffff;fill-opacity:1;fill-rule:nonzero;stroke:none"
         id="path5882"
         inkscape:connector-curvature="0" />
    </g>
    <g
       id="g5884"
       transform="matrix(0.606029,0,0,-0.60607102,559.64367,864.93203)"
       style="fill:#ffffff;fill-opacity:1">
      <path
         d="m 0,0 c 3.398,-4.601 9.882,-5.573 14.481,-2.176 4.6,3.398 5.577,9.881 2.178,14.481 C 13.263,16.903 6.778,17.878 2.178,14.479 -2.421,11.081 -3.396,4.597 0,0"
         style="fill:#ffffff;fill-opacity:1;fill-rule:nonzero;stroke:none"
         id="path5886"
         inkscape:connector-curvature="0" />
    </g>
    <g
       id="g5888"
       transform="matrix(0.67430603,0,0,-0.67430948,508.47593,803.24507)"
       style="fill:#ffffff;fill-opacity:1">
      <path
         d="m 0,0 c 4.738,-6.415 13.781,-7.778 20.198,-3.037 6.417,4.74 7.77,13.783 3.032,20.198 C 18.49,23.578 9.455,24.931 3.038,20.192 -3.378,15.452 -4.741,6.417 0,0"
         style="fill:#ffffff;fill-opacity:1;fill-rule:nonzero;stroke:none"
         id="path5890"
         inkscape:connector-curvature="0" />
    </g>
    <g
       id="g5892"
       transform="matrix(0.51120906,0,0,-0.51125074,568.34979,733.96106)"
       style="fill:#ffffff;fill-opacity:1">
      <path
         d="m 0,0 c 0,-6.78 -5.496,-12.274 -12.274,-12.274 -6.783,0 -12.278,5.494 -12.278,12.274 0,6.779 5.495,12.276 12.278,12.276 C -5.496,12.276 0,6.779 0,0"
         style="fill:#ffffff;fill-opacity:1;fill-rule:nonzero;stroke:none"
         id="path5894"
         inkscape:connector-curvature="0" />
    </g>
    <g
       id="g5896"
       transform="matrix(0.91614814,0,0,-0.91625146,529.76617,753.42098)"
       style="fill:#ffffff;fill-opacity:1">
      <path
         d="M 0,0 C 3.487,-4.721 10.143,-5.719 14.868,-2.229 19.589,1.26 20.588,7.911 17.1,12.632 13.614,17.351 6.963,18.354 2.241,14.865 -2.485,11.375 -3.487,4.719 0,0"
         style="fill:#ffffff;fill-opacity:1;fill-rule:nonzero;stroke:none"
         id="path5898"
         inkscape:connector-curvature="0" />
    </g>
    <g
       id="g5900"
       transform="matrix(0.51125074,0,0,-0.51127158,629.16109,744.10654)"
       style="fill:#ffffff;fill-opacity:1">
      <path
         d="m 0,0 c 0,-6.78 -5.492,-12.276 -12.269,-12.276 -6.785,0 -12.281,5.496 -12.281,12.276 0,6.776 5.496,12.273 12.281,12.273 C -5.492,12.273 0,6.776 0,0"
         style="fill:#ffffff;fill-opacity:1;fill-rule:nonzero;stroke:none"
         id="path5902"
         inkscape:connector-curvature="0" />
    </g>
    <g
       id="g5904"
       transform="matrix(0.89516141,0,0,-0.89557296,602.78469,732.4368)"
       style="fill:#ffffff;fill-opacity:1">
      <path
         d="m 0,0 c 0,-6.007 -4.872,-10.875 -10.884,-10.875 -6.008,0 -10.874,4.868 -10.874,10.875 0,6.004 4.866,10.873 10.874,10.873 C -4.872,10.873 0,6.004 0,0"
         style="fill:#ffffff;fill-opacity:1;fill-rule:nonzero;stroke:none"
         id="path5906"
         inkscape:connector-curvature="0" />
    </g>
    <g
       id="g5908"
       transform="matrix(0.5112261,0,0,-0.51123209,516.19315,774.96327)"
       style="fill:#ffffff;fill-opacity:1">
      <path
         d="m 0,0 c 4.028,-5.454 11.712,-6.611 17.163,-2.584 5.457,4.03 6.611,11.717 2.583,17.17 C 15.72,20.037 8.033,21.192 2.576,17.161 -2.874,13.135 -4.027,5.45 0,0"
         style="fill:#ffffff;fill-opacity:1;fill-rule:nonzero;stroke:none"
         id="path5910"
         inkscape:connector-curvature="0" />
    </g>
    <g
       id="g5912"
       transform="matrix(0.4699324,-0.12592415,-0.12591801,-0.46995531,518.17249,832.97119)"
       style="fill:#ffffff;fill-opacity:1">
      <path
         d="M 0,0 C 4.232,-5.73 12.311,-6.942 18.037,-2.712 23.77,1.521 24.985,9.6 20.752,15.328 16.52,21.056 8.442,22.271 2.709,18.036 -3.017,13.807 -4.232,5.728 0,0"
         style="fill:#ffffff;fill-opacity:1;fill-rule:nonzero;stroke:none"
         id="path5914"
         inkscape:connector-curvature="0" />
    </g>
    <g
       id="g5916"
       transform="matrix(0.92782592,0,0,-0.92787013,652.53442,766.69069)"
       style="fill:#ffffff;fill-opacity:1">
      <path
         d="m 0,0 c 0,-5.796 -4.698,-10.498 -10.497,-10.498 -5.798,0 -10.495,4.702 -10.495,10.498 0,5.798 4.697,10.493 10.495,10.493 C -4.698,10.493 0,5.798 0,0"
         style="fill:#ffffff;fill-opacity:1;fill-rule:nonzero;stroke:none"
         id="path5918"
         inkscape:connector-curvature="0" />
    </g>
    <g
       id="g5920"
       transform="matrix(0.79316345,0,0,-0.7933573,654.89896,825.71106)"
       style="fill:#ffffff;fill-opacity:1">
      <path
         d="m 0,0 c 0,-6.782 -5.498,-12.276 -12.277,-12.276 -6.781,0 -12.279,5.494 -12.279,12.276 0,6.776 5.498,12.274 12.279,12.274 C -5.498,12.274 0,6.776 0,0"
         style="fill:#ffffff;fill-opacity:1;fill-rule:nonzero;stroke:none"
         id="path5922"
         inkscape:connector-curvature="0" />
    </g>
    <g
       id="g5924"
       transform="matrix(0.7363056,0,0,0.73626036,580.8191,855.85998)"
       style="fill:#ffffff;fill-opacity:1">
      <path
         d="M 9.7859277,1.6863399 C 14.125469,-4.1884171 22.402704,-5.4359814 28.279615,-1.0953624 34.156527,3.2452566 35.398704,11.527877 31.06024,17.402634 26.719621,23.277391 18.438078,24.522801 12.561166,20.180027 6.686409,15.841563 5.446386,7.5610968 9.7859277,1.6863399"
         style="fill:#ffffff;fill-opacity:1;fill-rule:nonzero;stroke:none"
         id="path5926"
         inkscape:connector-curvature="0" />
    </g>
    <g
       style="fill:#ffffff;fill-opacity:1"
       transform="matrix(0.94043391,0,0,-0.94049916,531.91956,854.75967)"
       id="g5928">
      <path
         inkscape:connector-curvature="0"
         id="path5930"
         style="fill:#ffffff;fill-opacity:1;fill-rule:nonzero;stroke:none"
         d="m 0,0 c 3.398,-4.601 9.882,-5.573 14.481,-2.176 4.6,3.398 5.577,9.881 2.178,14.481 C 13.263,16.903 6.778,17.878 2.178,14.479 -2.421,11.081 -3.396,4.597 0,0" />
    </g>
  </g>
</svg>
