<?xml version="1.0" encoding="UTF-8" standalone="no"?>
<!-- Created with Inkscape (http://www.inkscape.org/) -->

<svg
   xmlns:dc="http://purl.org/dc/elements/1.1/"
   xmlns:cc="http://creativecommons.org/ns#"
   xmlns:rdf="http://www.w3.org/1999/02/22-rdf-syntax-ns#"
   xmlns:svg="http://www.w3.org/2000/svg"
   xmlns="http://www.w3.org/2000/svg"
   xmlns:sodipodi="http://sodipodi.sourceforge.net/DTD/sodipodi-0.dtd"
   xmlns:inkscape="http://www.inkscape.org/namespaces/inkscape"
   width="1052.3622"
   height="744.09448"
   id="svg8841"
   version="1.1"
   inkscape:version="0.48.0 r9654"
   sodipodi:docname="03.svg"
   inkscape:export-filename="/Users/athy/Desktop/02.png"
   inkscape:export-xdpi="300.01797"
   inkscape:export-ydpi="300.01797">
  <defs
     id="defs8843" />
  <sodipodi:namedview
     id="base"
     pagecolor="#ffffff"
     bordercolor="#666666"
     borderopacity="1.0"
     inkscape:pageopacity="0.0"
     inkscape:pageshadow="2"
     inkscape:zoom="0.49497475"
     inkscape:cx="629.60409"
     inkscape:cy="360.90369"
     inkscape:document-units="px"
     inkscape:current-layer="layer1"
     showgrid="false"
     inkscape:window-width="1436"
     inkscape:window-height="856"
     inkscape:window-x="0"
     inkscape:window-y="0"
     inkscape:window-maximized="1" />
  <metadata
     id="metadata8846">
    <rdf:RDF>
      <cc:Work
         rdf:about="">
        <dc:format>image/svg+xml</dc:format>
        <dc:type
           rdf:resource="http://purl.org/dc/dcmitype/StillImage" />
        <dc:title></dc:title>
      </cc:Work>
    </rdf:RDF>
  </metadata>
  <g
     inkscape:label="Capa 1"
     inkscape:groupmode="layer"
     id="layer1"
     transform="translate(0,-308.26767)">
    <rect
       style="opacity:1;fill:#000000;fill-opacity:1;stroke:none"
       id="rect4056"
       width="1058.6399"
       height="749.5332"
       x="-2.0203049"
       y="306.86957" />
    <path
       inkscape:connector-curvature="0"
       id="path3900"
       style="font-size:32px;font-style:normal;font-weight:normal;line-height:125%;letter-spacing:0px;word-spacing:0px;fill:#ffffff;fill-opacity:1;stroke:none;font-family:Code Bold;-inkscape-font-specification:Code Bold"
       d="m 75.6275,666.35542 c -6.896921,0 -12.539857,5.22495 -12.539857,12.95786 0,6.26992 5.642936,12.74885 12.539857,12.74885 7.732912,0 13.16685,-6.47893 13.16685,-12.74885 0,-7.73291 -5.433938,-12.95786 -13.16685,-12.95786"
       inkscape:export-filename="/Users/athy/Desktop/03.png"
       inkscape:export-xdpi="300.01797"
       inkscape:export-ydpi="300.01797" />
    <path
       inkscape:connector-curvature="0"
       id="path3902"
       style="font-size:32px;font-style:normal;font-weight:normal;line-height:125%;letter-spacing:0px;word-spacing:0px;fill:#ffffff;fill-opacity:1;stroke:none;font-family:Code Bold;-inkscape-font-specification:Code Bold"
       d="m 149.43632,539.07506 17.34843,0 -53.0658,171.74951 -17.348436,0 53.065806,-171.74951"
       inkscape:export-filename="/Users/athy/Desktop/03.png"
       inkscape:export-xdpi="300.01797"
       inkscape:export-ydpi="300.01797" />
    <path
       inkscape:connector-curvature="0"
       id="path3904"
       style="font-size:32px;font-style:normal;font-weight:normal;line-height:125%;letter-spacing:0px;word-spacing:0px;fill:#1caa24;fill-opacity:1;stroke:none;font-family:Code Bold;-inkscape-font-specification:Code Bold"
       d="m 294.2684,618.28597 c 0,15.04782 -6.06093,28.21469 -15.46582,37.82857 -9.82289,9.82288 -23.40774,15.88382 -37.82857,15.88382 -14.42084,0 -27.79669,-6.06094 -37.41058,-15.88382 -9.61389,-9.61388 -15.67482,-22.98975 -15.67482,-37.82857 0,-14.83882 6.06093,-28.21468 15.67482,-37.82857 9.61389,-9.82287 22.98974,-15.88382 37.41058,-15.88382 14.42083,0 28.00568,6.06095 37.82857,15.88382 9.40489,9.61389 15.46582,22.78076 15.46582,37.82857 m -127.69755,0 c 0,20.69075 8.56891,39.29157 21.73576,52.8764 13.37584,13.79383 32.18563,22.15375 52.6674,22.15375 20.69076,0 39.29155,-8.35992 52.87639,-22.15375 13.16685,-13.58483 21.73576,-32.18565 21.73576,-52.8764 0,-20.69074 -8.56891,-39.29156 -21.73576,-52.8764 -13.58484,-13.58483 -32.18563,-22.15374 -52.87639,-22.15374 -20.48177,0 -39.29156,8.56891 -52.6674,22.15374 -13.16685,13.58484 -21.73576,32.18566 -21.73576,52.8764" />
    <path
       inkscape:connector-curvature="0"
       id="path3906"
       style="font-size:32px;font-style:normal;font-weight:normal;line-height:125%;letter-spacing:0px;word-spacing:0px;fill:#148e8a;fill-opacity:0.99215686;stroke:none;font-family:Code Bold;-inkscape-font-specification:Code Bold"
       d="m 332.78601,545.1368 0,146.29834 21.31776,0 0,-48.69645 32.18563,0 c 31.55857,0 47.44246,-24.24375 47.44246,-48.69644 0,-24.4527 -15.88389,-48.90545 -47.44246,-48.90545 l -53.50339,0 m 21.31776,76.70213 0,-55.38437 32.18563,0 c 17.7648,0 26.5427,13.79386 26.5427,27.79668 0,13.79383 -8.7779,27.58769 -26.5427,27.58769 l -32.18563,0" />
    <path
       inkscape:connector-curvature="0"
       id="path3908"
       style="font-size:32px;font-style:normal;font-weight:normal;line-height:125%;letter-spacing:0px;word-spacing:0px;fill:#783f67;fill-opacity:1;stroke:none;font-family:Code Bold;-inkscape-font-specification:Code Bold"
       d="m 435.39404,618.70397 c 0,20.27275 8.35991,38.66457 20.89976,52.0404 12.74886,13.37584 30.72265,21.73576 50.57743,21.73576 34.06654,0 60.81831,-22.57178 69.17821,-55.80237 l -20.69076,0 c -7.52392,22.15373 -26.3337,34.9026 -48.48745,34.9026 -14.00284,0 -26.7517,-6.06093 -35.94759,-15.67482 -9.1959,-9.61387 -15.04783,-22.57175 -15.04783,-37.20157 0,-15.04781 5.85193,-28.00569 15.04783,-37.61958 9.19589,-9.61387 21.94475,-15.67482 35.94759,-15.67482 21.52675,0 39.50055,11.0769 47.23346,33.02163 l 20.89976,0 c -8.3599,-33.02159 -34.69367,-53.92139 -68.13322,-53.92139 -19.85478,0 -37.82857,8.56892 -50.57743,21.73575 -12.53985,13.37584 -20.89976,31.76766 -20.89976,52.45841" />
    <path
       inkscape:connector-curvature="0"
       id="path3910"
       style="font-size:32px;font-style:normal;font-weight:normal;line-height:125%;letter-spacing:0px;word-spacing:0px;fill:#d3000c;fill-opacity:0.98039216;stroke:none;font-family:Code Bold;-inkscape-font-specification:Code Bold"
       d="m 710.63084,618.28597 c 0,15.04782 -6.06093,28.21469 -15.46582,37.82857 -9.82289,9.82288 -23.40773,15.88382 -37.82857,15.88382 -14.42083,0 -27.79668,-6.06094 -37.41057,-15.88382 -9.61389,-9.61388 -15.67482,-22.98975 -15.67482,-37.82857 0,-14.83882 6.06093,-28.21468 15.67482,-37.82857 9.61389,-9.82287 22.98974,-15.88382 37.41057,-15.88382 14.42084,0 28.00568,6.06095 37.82857,15.88382 9.40489,9.61389 15.46582,22.78076 15.46582,37.82857 m -127.69754,0 c 0,20.69075 8.5689,39.29157 21.73575,52.8764 13.37585,13.79383 32.18564,22.15375 52.6674,22.15375 20.69077,0 39.29155,-8.35992 52.8764,-22.15375 13.16685,-13.58483 21.73575,-32.18565 21.73575,-52.8764 0,-20.69074 -8.5689,-39.29156 -21.73575,-52.8764 -13.58485,-13.58483 -32.18563,-22.15374 -52.8764,-22.15374 -20.48176,0 -39.29155,8.56891 -52.6674,22.15374 -13.16685,13.58484 -21.73575,32.18566 -21.73575,52.8764" />
    <path
       inkscape:connector-curvature="0"
       id="path3912"
       style="font-size:32px;font-style:normal;font-weight:normal;line-height:125%;letter-spacing:0px;word-spacing:0px;fill:#ff6600;fill-opacity:1;stroke:none;font-family:Code Bold;-inkscape-font-specification:Code Bold"
       d="m 766.39402,670.32638 0,-103.87182 31.34964,0 c 33.85755,0 50.99542,26.12473 50.99542,52.04041 0,25.91568 -17.13787,51.83141 -50.99542,51.83141 l -31.34964,0 m -21.10876,-124.98058 0,146.08934 52.4584,0 c 47.86039,0 71.89519,-36.36562 71.89519,-72.94017 0,-36.57455 -24.0348,-73.14917 -71.89519,-73.14917 l -52.4584,0" />
    <path
       inkscape:connector-curvature="0"
       id="path3914"
       style="font-size:32px;font-style:normal;font-weight:normal;line-height:125%;letter-spacing:0px;word-spacing:0px;fill:#ffcc00;fill-opacity:0.97647059;stroke:none;font-family:Code Bold;-inkscape-font-specification:Code Bold"
       d="m 901.48812,628.94485 66.25225,0 0,-21.31776 -66.25225,0 0,-41.17253 67.71523,0 0,-21.10876 -89.03298,0 0,146.08934 89.24198,0 0,-21.10876 -67.92423,0 0,-41.38153" />
    <g
       transform="matrix(7.1592417,0,0,7.1592417,-1330.5306,1076.3667)"
       style="font-size:13.99170971000000030px;font-style:normal;font-weight:normal;line-height:125%;letter-spacing:0px;word-spacing:0px;fill:#ffffff;fill-opacity:1;stroke:none;font-family:Continuum Bold;-inkscape-font-specification:Continuum Bold"
       id="text3852">
      <path
         d="m 218.36946,-39.062363 c -0.46173,0 -0.83951,0.349793 -0.83951,0.867486 0,0.419751 0.37778,0.853494 0.83951,0.853494 0.51769,0 0.88148,-0.433743 0.88148,-0.853494 0,-0.517693 -0.36379,-0.867486 -0.88148,-0.867486"
         style="font-style:normal;font-variant:normal;font-weight:bold;font-stretch:normal;font-family:Code Bold;-inkscape-font-specification:'Code Bold, Bold';fill:#ffffff"
         id="path3867"
         inkscape:connector-curvature="0" />
      <path
         d="m 225.47462,-39.062363 c -0.46172,0 -0.8395,0.349793 -0.8395,0.867486 0,0.419751 0.37778,0.853494 0.8395,0.853494 0.5177,0 0.88148,-0.433743 0.88148,-0.853494 0,-0.517693 -0.36378,-0.867486 -0.88148,-0.867486"
         style="font-style:normal;font-variant:normal;font-weight:bold;font-stretch:normal;font-family:Code Bold;-inkscape-font-specification:'Code Bold, Bold';fill:#ffffff"
         id="path3869"
         inkscape:connector-curvature="0" />
      <path
         d="m 232.57979,-39.062363 c -0.46173,0 -0.8395,0.349793 -0.8395,0.867486 0,0.419751 0.37777,0.853494 0.8395,0.853494 0.51769,0 0.88148,-0.433743 0.88148,-0.853494 0,-0.517693 -0.36379,-0.867486 -0.88148,-0.867486"
         style="font-style:normal;font-variant:normal;font-weight:bold;font-stretch:normal;font-family:Code Bold;-inkscape-font-specification:'Code Bold, Bold';fill:#ffffff"
         id="path3871"
         inkscape:connector-curvature="0" />
      <path
         d="m 238.9294,-42.252473 c 0,1.357195 0.55967,2.588467 1.39917,3.483936 0.8535,0.895468 2.05679,1.455138 3.386,1.455138 2.28064,0 4.07158,-1.511107 4.63125,-3.735787 l -1.38518,0 c -0.5037,1.48312 -1.76295,2.336616 -3.24607,2.336616 -0.93745,0 -1.79094,-0.405761 -2.40658,-1.049379 -0.61563,-0.643618 -1.0074,-1.511105 -1.0074,-2.490524 0,-1.007402 0.39177,-1.87489 1.0074,-2.518508 0.61564,-0.643618 1.46913,-1.049378 2.40658,-1.049378 1.44114,0 2.64443,0.741562 3.16212,2.21069 l 1.39917,0 c -0.55966,-2.210688 -2.32262,-3.609861 -4.56129,-3.609861 -1.32921,0 -2.5325,0.573661 -3.386,1.455138 -0.8395,0.895468 -1.39917,2.126741 -1.39917,3.511919"
         style="font-style:normal;font-variant:normal;font-weight:bold;font-stretch:normal;font-family:Code Bold;-inkscape-font-specification:'Code Bold, Bold';fill:#ffffff"
         id="path3873"
         inkscape:connector-curvature="0" />
      <path
         d="m 257.35561,-42.280456 c 0,1.007402 -0.40576,1.888881 -1.03539,2.532499 -0.65761,0.65761 -1.56707,1.06337 -2.5325,1.06337 -0.96542,0 -1.8609,-0.40576 -2.50451,-1.06337 -0.64362,-0.643618 -1.04938,-1.539089 -1.04938,-2.532499 0,-0.993411 0.40576,-1.888882 1.04938,-2.5325 0.64361,-0.65761 1.53909,-1.06337 2.50451,-1.06337 0.96543,0 1.87489,0.40576 2.5325,1.06337 0.62963,0.643618 1.03539,1.525098 1.03539,2.5325 m -8.54894,0 c 0,1.385177 0.57367,2.630442 1.45514,3.539902 0.89547,0.923452 2.15473,1.483121 3.52591,1.483121 1.38518,0 2.63045,-0.559669 3.53991,-1.483121 0.88147,-0.90946 1.45513,-2.154725 1.45513,-3.539902 0,-1.385178 -0.57366,-2.630443 -1.45513,-3.539903 -0.90946,-0.90946 -2.15473,-1.483121 -3.53991,-1.483121 -1.37118,0 -2.63044,0.573661 -3.52591,1.483121 -0.88147,0.90946 -1.45514,2.154725 -1.45514,3.539903"
         style="font-style:normal;font-variant:normal;font-weight:bold;font-stretch:normal;font-family:Code Bold;-inkscape-font-specification:'Code Bold, Bold';fill:#ffffff"
         id="path3875"
         inkscape:connector-curvature="0" />
      <path
         d="m 267.9587,-42.280456 c 0,1.007402 -0.40576,1.888881 -1.03539,2.532499 -0.65761,0.65761 -1.56707,1.06337 -2.5325,1.06337 -0.96542,0 -1.86089,-0.40576 -2.50451,-1.06337 -0.64362,-0.643618 -1.04938,-1.539089 -1.04938,-2.532499 0,-0.993411 0.40576,-1.888882 1.04938,-2.5325 0.64362,-0.65761 1.53909,-1.06337 2.50451,-1.06337 0.96543,0 1.87489,0.40576 2.5325,1.06337 0.62963,0.643618 1.03539,1.525098 1.03539,2.5325 m -8.54894,0 c 0,1.385177 0.57367,2.630442 1.45514,3.539902 0.89547,0.923452 2.15473,1.483121 3.52591,1.483121 1.38518,0 2.63045,-0.559669 3.53991,-1.483121 0.88147,-0.90946 1.45513,-2.154725 1.45513,-3.539902 0,-1.385178 -0.57366,-2.630443 -1.45513,-3.539903 -0.90946,-0.90946 -2.15473,-1.483121 -3.53991,-1.483121 -1.37118,0 -2.63044,0.573661 -3.52591,1.483121 -0.88147,0.90946 -1.45514,2.154725 -1.45514,3.539903"
         style="font-style:normal;font-variant:normal;font-weight:bold;font-stretch:normal;font-family:Code Bold;-inkscape-font-specification:'Code Bold, Bold';fill:#ffffff"
         id="path3877"
         inkscape:connector-curvature="0" />
      <path
         d="m 270.53733,-47.177555 0,9.794197 1.42715,0 0,-3.260068 2.15473,0 c 2.11274,0 3.17612,-1.62304 3.17612,-3.260069 0,-1.637028 -1.06338,-3.27406 -3.17612,-3.27406 l -3.58188,0 m 1.42715,5.134958 0,-3.707803 2.15473,0 c 1.18929,0 1.77694,0.923453 1.77694,1.860897 0,0.923452 -0.58765,1.846906 -1.77694,1.846906 l -2.15473,0"
         style="font-style:normal;font-variant:normal;font-weight:bold;font-stretch:normal;font-family:Code Bold;-inkscape-font-specification:'Code Bold, Bold';fill:#ffffff"
         id="path3879"
         inkscape:connector-curvature="0" />
      <path
         d="m 279.39692,-41.566879 4.43538,0 0,-1.427155 -4.43538,0 0,-2.756366 4.53332,0 0,-1.413163 -5.96047,0 0,9.780205 5.97446,0 0,-1.413163 -4.54731,0 0,-2.770358"
         style="font-style:normal;font-variant:normal;font-weight:bold;font-stretch:normal;font-family:Code Bold;-inkscape-font-specification:'Code Bold, Bold';fill:#ffffff"
         id="path3881"
         inkscape:connector-curvature="0" />
      <path
         d="m 286.5152,-41.678813 3.56789,4.295455 1.83291,0 -3.09216,-3.67982 c 1.679,-0.293825 2.5325,-1.609048 2.5325,-2.994226 0,-1.553078 -1.06338,-3.120151 -3.19011,-3.120151 l -3.56789,0 0,9.794197 1.39917,0 0,-8.367042 2.16872,0 c 1.18929,0 1.77694,0.853495 1.77694,1.692996 0,0.853494 -0.58765,1.706989 -1.77694,1.706989 l -2.25103,0 0.6,0.671602"
         style="font-style:normal;font-variant:normal;font-weight:bold;font-stretch:normal;font-family:Code Bold;-inkscape-font-specification:'Code Bold, Bold';fill:#ffffff"
         id="path3883"
         inkscape:connector-curvature="0"
         sodipodi:nodetypes="ccccssccccssscc" />
      <path
         d="m 296.09253,-45.050815 1.20329,3.455952 -2.43456,0 1.23127,-3.455952 m 2.92427,7.667457 1.5111,0 -3.93167,-9.920122 -1.03538,0 -3.93167,9.920122 1.52509,0 c 0.30782,-0.811518 0.79753,-1.986824 1.17531,-2.882292 l 3.51192,0 1.1753,2.882292"
         style="font-style:normal;font-variant:normal;font-weight:bold;font-stretch:normal;font-family:Code Bold;-inkscape-font-specification:'Code Bold, Bold';fill:#ffffff"
         id="path3885"
         inkscape:connector-curvature="0" />
      <path
         d="m 302.90823,-37.364454 0,-8.520951 2.95225,0 0,-1.315221 -7.33166,0 0,1.315221 2.96624,0 0,8.520951 1.41317,0"
         style="font-style:normal;font-variant:normal;font-weight:bold;font-stretch:normal;font-family:Code Bold;-inkscape-font-specification:'Code Bold, Bold';fill:#ffffff"
         id="path3887"
         inkscape:connector-curvature="0" />
      <path
         d="m 306.56996,-47.177734 0,1.390242 -0.005,0 0,6.967871 0.005,0 0,1.413163 1.41071,0 0,-1.413163 -0.003,0 0,-6.967871 0.003,0.0045 0,-1.399171"
         style="font-style:normal;font-variant:normal;font-weight:bold;font-stretch:normal;font-family:Code Bold;-inkscape-font-specification:'Code Bold, Bold';fill:#ffffff"
         id="path3889"
         inkscape:connector-curvature="0"
         sodipodi:nodetypes="cccccccccccc" />
      <path
         d="m 312.76555,-39.86897 -2.91027,-7.317664 -1.53909,0 3.93167,9.808188 1.03539,0 3.93167,-9.808188 -1.51111,0 -2.93826,7.317664"
         style="font-style:normal;font-variant:normal;font-weight:bold;font-stretch:normal;font-family:Code Bold;-inkscape-font-specification:'Code Bold, Bold';fill:#ffffff"
         id="path3891"
         inkscape:connector-curvature="0" />
      <path
         d="m 318.69397,-45.073886 1.20328,3.455952 -2.43455,0 1.23127,-3.455952 m 2.92426,7.667457 1.51111,0 -3.93167,-9.920122 -1.03539,0 -3.93167,9.920122 1.5251,0 c 0.30782,-0.811518 0.79753,-1.986824 1.1753,-2.882292 l 3.51192,0 1.1753,2.882292"
         style="font-style:normal;font-variant:normal;font-weight:bold;font-stretch:normal;font-family:Code Bold;-inkscape-font-specification:'Code Bold, Bold';fill:#ffffff"
         id="path3893"
         inkscape:connector-curvature="0" />
    </g>
  </g>
</svg>
